<mxfile host="app.diagrams.net" modified="2023-06-12T12:15:24.555Z" agent="Mozilla/5.0 (Windows NT 10.0; Win64; x64) AppleWebKit/537.36 (KHTML, like Gecko) Chrome/114.0.0.0 Safari/537.36" etag="ed-oPle4HHOtZDjS1Qf8" version="21.3.8" type="device">
  <diagram name="Page-1" id="BYMth_k0tukzXJGnvSqq">
    <mxGraphModel dx="1235" dy="681" grid="1" gridSize="10" guides="1" tooltips="1" connect="1" arrows="1" fold="1" page="1" pageScale="1" pageWidth="850" pageHeight="1100" math="0" shadow="0">
      <root>
        <mxCell id="0" />
        <mxCell id="1" parent="0" />
        <mxCell id="QnyUuKHMK_xAiUwh2k0u-15" style="edgeStyle=orthogonalEdgeStyle;rounded=0;orthogonalLoop=1;jettySize=auto;html=1;" parent="1" source="QnyUuKHMK_xAiUwh2k0u-1" target="QnyUuKHMK_xAiUwh2k0u-7" edge="1">
          <mxGeometry relative="1" as="geometry" />
        </mxCell>
        <mxCell id="QnyUuKHMK_xAiUwh2k0u-1" value="Database" style="shape=cylinder3;whiteSpace=wrap;html=1;boundedLbl=1;backgroundOutline=1;size=15;" parent="1" vertex="1">
          <mxGeometry x="350.3" y="810" width="70" height="90" as="geometry" />
        </mxCell>
        <mxCell id="QnyUuKHMK_xAiUwh2k0u-17" style="edgeStyle=orthogonalEdgeStyle;rounded=0;orthogonalLoop=1;jettySize=auto;html=1;" parent="1" source="QnyUuKHMK_xAiUwh2k0u-6" target="QnyUuKHMK_xAiUwh2k0u-7" edge="1">
          <mxGeometry relative="1" as="geometry" />
        </mxCell>
        <mxCell id="QnyUuKHMK_xAiUwh2k0u-6" value="" style="sketch=0;outlineConnect=0;fontColor=#232F3E;gradientColor=none;fillColor=#232F3D;strokeColor=none;dashed=0;verticalLabelPosition=bottom;verticalAlign=top;align=center;html=1;fontSize=12;fontStyle=0;aspect=fixed;pointerEvents=1;shape=mxgraph.aws4.users;" parent="1" vertex="1">
          <mxGeometry x="171.3" y="954.5" width="78" height="78" as="geometry" />
        </mxCell>
        <mxCell id="QnyUuKHMK_xAiUwh2k0u-16" style="edgeStyle=orthogonalEdgeStyle;rounded=0;orthogonalLoop=1;jettySize=auto;html=1;entryX=0.5;entryY=1;entryDx=0;entryDy=0;entryPerimeter=0;" parent="1" source="QnyUuKHMK_xAiUwh2k0u-7" target="QnyUuKHMK_xAiUwh2k0u-1" edge="1">
          <mxGeometry relative="1" as="geometry" />
        </mxCell>
        <mxCell id="QnyUuKHMK_xAiUwh2k0u-18" style="edgeStyle=orthogonalEdgeStyle;rounded=0;orthogonalLoop=1;jettySize=auto;html=1;" parent="1" source="QnyUuKHMK_xAiUwh2k0u-7" target="QnyUuKHMK_xAiUwh2k0u-6" edge="1">
          <mxGeometry relative="1" as="geometry" />
        </mxCell>
        <mxCell id="QnyUuKHMK_xAiUwh2k0u-19" style="edgeStyle=orthogonalEdgeStyle;rounded=0;orthogonalLoop=1;jettySize=auto;html=1;" parent="1" source="QnyUuKHMK_xAiUwh2k0u-7" target="QnyUuKHMK_xAiUwh2k0u-8" edge="1">
          <mxGeometry relative="1" as="geometry" />
        </mxCell>
        <mxCell id="QnyUuKHMK_xAiUwh2k0u-7" value="" style="sketch=0;pointerEvents=1;shadow=0;dashed=0;html=1;strokeColor=none;fillColor=#505050;labelPosition=center;verticalLabelPosition=bottom;verticalAlign=top;outlineConnect=0;align=center;shape=mxgraph.office.concepts.website;" parent="1" vertex="1">
          <mxGeometry x="322.8" y="944.5" width="125" height="98" as="geometry" />
        </mxCell>
        <mxCell id="QnyUuKHMK_xAiUwh2k0u-20" style="edgeStyle=orthogonalEdgeStyle;rounded=0;orthogonalLoop=1;jettySize=auto;html=1;" parent="1" source="QnyUuKHMK_xAiUwh2k0u-8" target="QnyUuKHMK_xAiUwh2k0u-7" edge="1">
          <mxGeometry relative="1" as="geometry" />
        </mxCell>
        <mxCell id="QnyUuKHMK_xAiUwh2k0u-8" value="" style="sketch=0;outlineConnect=0;fontColor=#232F3E;gradientColor=none;fillColor=#232F3D;strokeColor=none;dashed=0;verticalLabelPosition=bottom;verticalAlign=top;align=center;html=1;fontSize=12;fontStyle=0;aspect=fixed;pointerEvents=1;shape=mxgraph.aws4.user;" parent="1" vertex="1">
          <mxGeometry x="521.3" y="954.5" width="78" height="78" as="geometry" />
        </mxCell>
        <mxCell id="QnyUuKHMK_xAiUwh2k0u-13" style="edgeStyle=orthogonalEdgeStyle;rounded=0;orthogonalLoop=1;jettySize=auto;html=1;exitX=0.498;exitY=1.119;exitDx=0;exitDy=0;exitPerimeter=0;" parent="1" source="QnyUuKHMK_xAiUwh2k0u-28" target="QnyUuKHMK_xAiUwh2k0u-1" edge="1">
          <mxGeometry relative="1" as="geometry">
            <mxPoint x="385" y="750" as="sourcePoint" />
          </mxGeometry>
        </mxCell>
        <mxCell id="QnyUuKHMK_xAiUwh2k0u-9" value="" style="outlineConnect=0;dashed=0;verticalLabelPosition=bottom;verticalAlign=top;align=center;html=1;shape=mxgraph.aws3.s3;fillColor=#E05243;gradientColor=none;" parent="1" vertex="1">
          <mxGeometry x="346.75" y="640" width="76.5" height="93" as="geometry" />
        </mxCell>
        <mxCell id="QnyUuKHMK_xAiUwh2k0u-27" style="edgeStyle=orthogonalEdgeStyle;rounded=0;orthogonalLoop=1;jettySize=auto;html=1;entryX=0.5;entryY=0;entryDx=0;entryDy=0;entryPerimeter=0;" parent="1" source="QnyUuKHMK_xAiUwh2k0u-32" target="QnyUuKHMK_xAiUwh2k0u-9" edge="1">
          <mxGeometry relative="1" as="geometry">
            <mxPoint x="385.3529411764705" y="600" as="sourcePoint" />
          </mxGeometry>
        </mxCell>
        <mxCell id="QnyUuKHMK_xAiUwh2k0u-28" value="Amazon S3" style="text;html=1;align=center;verticalAlign=middle;resizable=0;points=[];autosize=1;strokeColor=none;fillColor=none;" parent="1" vertex="1">
          <mxGeometry x="340.29999999999995" y="733" width="90" height="30" as="geometry" />
        </mxCell>
        <mxCell id="QnyUuKHMK_xAiUwh2k0u-29" value="Over Speeding&lt;br&gt;Violation Detector&lt;br&gt;Hardware" style="text;html=1;align=center;verticalAlign=middle;resizable=0;points=[];autosize=1;strokeColor=none;fillColor=none;" parent="1" vertex="1">
          <mxGeometry x="60" y="600.5" width="120" height="60" as="geometry" />
        </mxCell>
        <mxCell id="VJpR1qYwohyVPgYZPXll-16" style="edgeStyle=orthogonalEdgeStyle;rounded=0;orthogonalLoop=1;jettySize=auto;html=1;" edge="1" parent="1" source="QnyUuKHMK_xAiUwh2k0u-30" target="VJpR1qYwohyVPgYZPXll-1">
          <mxGeometry relative="1" as="geometry">
            <Array as="points">
              <mxPoint x="275" y="380" />
              <mxPoint x="385" y="380" />
            </Array>
          </mxGeometry>
        </mxCell>
        <mxCell id="QnyUuKHMK_xAiUwh2k0u-30" value="Illegal Lane Change&lt;br&gt;Violation Detector&lt;br&gt;Hardware" style="text;html=1;align=center;verticalAlign=middle;resizable=0;points=[];autosize=1;strokeColor=none;fillColor=none;" parent="1" vertex="1">
          <mxGeometry x="205" y="260" width="130" height="60" as="geometry" />
        </mxCell>
        <mxCell id="QnyUuKHMK_xAiUwh2k0u-31" value="Beating the Red Light&lt;br&gt;Violation Detector&lt;br&gt;Hardware" style="text;html=1;align=center;verticalAlign=middle;resizable=0;points=[];autosize=1;strokeColor=none;fillColor=none;" parent="1" vertex="1">
          <mxGeometry x="571.3" y="600.5" width="140" height="60" as="geometry" />
        </mxCell>
        <mxCell id="QnyUuKHMK_xAiUwh2k0u-32" value="Recording System&amp;nbsp;&lt;br&gt;(Running on &lt;br&gt;Admin&#39;s Computer)" style="text;html=1;align=center;verticalAlign=middle;resizable=0;points=[];autosize=1;strokeColor=none;fillColor=none;" parent="1" vertex="1">
          <mxGeometry x="320" y="530.5" width="130" height="60" as="geometry" />
        </mxCell>
        <mxCell id="QnyUuKHMK_xAiUwh2k0u-33" value="End Users&lt;br&gt;(Traffic Enforcers)" style="text;html=1;align=center;verticalAlign=middle;resizable=0;points=[];autosize=1;strokeColor=none;fillColor=none;" parent="1" vertex="1">
          <mxGeometry x="150.3" y="1032.5" width="120" height="40" as="geometry" />
        </mxCell>
        <mxCell id="QnyUuKHMK_xAiUwh2k0u-34" value="Web Application" style="text;html=1;align=center;verticalAlign=middle;resizable=0;points=[];autosize=1;strokeColor=none;fillColor=none;" parent="1" vertex="1">
          <mxGeometry x="330" y="1042.5" width="110" height="30" as="geometry" />
        </mxCell>
        <mxCell id="QnyUuKHMK_xAiUwh2k0u-35" value="Administrators" style="text;html=1;align=center;verticalAlign=middle;resizable=0;points=[];autosize=1;strokeColor=none;fillColor=none;" parent="1" vertex="1">
          <mxGeometry x="510.29999999999995" y="1037.5" width="100" height="30" as="geometry" />
        </mxCell>
        <mxCell id="VJpR1qYwohyVPgYZPXll-1" value="" style="shape=image;verticalLabelPosition=bottom;labelBackgroundColor=default;verticalAlign=top;aspect=fixed;imageAspect=0;image=data:image/png,iVBORw0KGgoAAAANSUhEUgAAAgAAAAIACAYAAAD0eNT6AABPhElEQVR42u3dCXwb5Z3/ccmWbFkWgkJpCC1ly9XUhcQaW/KRBAfShR4sbLtNW9jt9tiWBUrv/ru77VLoptubXpwJiSWHXtBSmnZ7LT1od8vSFnoXCoUWQkJI4lhyuK/4/3vsGWfkyNLMaEae4+PX63kpsa237Xnmeb6/kWbmicX44IMPPvjggw8+7H686EWr4tLaTC2Oh4eHh4eHFyzP7g9vn9vw8PDw8PDwguXZrToS0pKmlnBafeDh4eHh4eG13nPyw9UP7DC1ZJN/DB4eHh4eHl4LPSc/vFNaytQ6m/xj8PDw8PDw8FroOfnh6gd2mVqqyT8GDw8PDw8Pr4WeYVr9RnV2YVpat6mp/7c5/MF4eHh4eHh4rffi+kmDbVZ/uPqBGVPrbvKPwcPDw8PDw2utZ5xA2LgAMP3wrKllmvxjMnh4eHh4eHgt9eKmqwbqFwD6N6dNv8CB+mMzf4zhHIiHh4eHh4fXEs84gbDDVADE631zyvTSQ5aNjYeHh4eHF0jPuGpgtgBoVCl0zXnvgY2Nh4eHh4cXLC9tumpAFQCJRu8RpEwFQDcbGw8PDw8PL3CekeFGAZCs99J/Qq8QjAIgzcbGw8PDw8MLnGe+aqCr7k2D9JMCkqYCIMXGxsPDw8PDC6SXNRUAqUYn/ZkLgGZuV0jn4eHh4eHhLaxnFADpunmuP6nddI0g4Y+Hh4eHhxdcL2vpHD5TAZAg/PHw8PDw8ALvWbt6z1QAEP54eHh4eHhR8ZpcUYiNjYeHh4eHF3CPjYOHh4eHh0f4s3Hw8PDw8PAIfzY2Hh4eHh4e4c/GxsPDw8PDI/zx8PDw8PDwCH88PDw8PDw8P4a/5av/2Nh4eHh4eHih8Ixb/1u+SVCGjY2Hh4eHhxf48E9YKgBM6wln2dh4eHh4eHiBDn9jvZ/6BYD+zWn96D/LxsbDw8PDwwts+Hfqq/0m6976X//mlH70nzGtLczGxsPDw8PDC5aX0ttsAdCoUugyFQAZNjYeHh4eHl7gvLSe50YBkGj0HkHKVAB0s7Hx8PDw8PAC5xkZbhQAyXov/Sf0CsEoANJsbDw8PDw8vMB5xqv3RgHQWS/82/XqoMP0fgEbGw8PDw8PL3he1lQApBqd9GcuADot3yWIjY2Hh4eHh+c3zygA0nXzXH9Su+kaQcIfDw8PDw8vuF7W0jl8pgIgQfjj4eHh4eEF3rN29Z6pACD88fDw8PDwouI5DX42Nh4eHh4eXjg8Ng4eHh4eHh7hz8bBw8PDw8Mj/NnYeHh4eHh4hD8bGw8PDw8Pj/DHw8PDw8PDI/zx8PDw8PDw/Bj+lq/+Y2Pj4eHh4eGFwjNu/W/5JkEZNjYeHh4eHl7gwz9hqQAwrSecZWPj4eHh4eEFOvyN9X7qFwD6N6f1o/8sGxsPDw8PDy+w4d+pr/abrHvrf/2bU/rRf8a0tjAbGw8PDw8PL1heSm+zBUCjSqHLVABk2Nh4eHh4eHiB89J6nhsFQKLRewQpUwHQzcbGw8PDw8MLnGdkuFEAJOu99J/QKwSjAEizsfHw8PDw8ALnGa/eGwVAZ73wb9ergw7T+wVsbDw8PDw8vOB5WVMBkGp00p+5AOi0fJcgNjYeHh4eHp7fPKMASNfNc/1J7aZrBAl/PDw8PDy84HpZS+fwmQqABOGPh4eHh4cXeM/a1XumAoDwx8PDw8PDi4rnNPjZ2Hh4eHh4eOHw2Dh4eHh4eHiEPxsHDw8PDw+P8Gdj4+Hh4eHhEf5sbDw8PDw8PMIfDw8PDw8Pj/DHw8PDw8PD82P4W776z6s/5gXnrT384A//z3D24ltf2v2Z369pK42fGRubfF1s0+Tr7bS20u43dF1+57npS28/z2jq/+rzdi08PDy8QHuX3H5u16V3vLltdNeaWLG8OrbpweNj1+7IEIZ4RvDr9/2xfJOgTNM/fN22dGyscmq8NPGx5JVbf5Rct21bYv3WvYmr7p9KbHhgKl6qTEn4227qeer5047R8PDw8PDmtPL2WHHyu/LvtWounp6TCcMohn/CUgFgWk846+iHr5s4UHa6N8sO9yOpRB9ncOLh4eH5xSs/GiuVvzX9quuGXQcQrpEIf2O9n/oFgP7Naf3oP2vrh5cqBdmpvji9gzE48fDw8PztjZYf6lh3b+mQj/xkkHANbfh36qv9Juve+l//5pR+9J8xrS1c/4eP7RmJFSdvYHDi4eHhBdPruOKe7x74yf9bQbiGykvpbbYAaFQpdJkKgPqrCm0qPy9WLH+TwYSHh4cXAm90Ym9srHx1bMPDhxOugffSep4bBUCi0XsEKVMBMP96wuumkrGxyvtjxcojDCY8PDy8kHnFyclYqfLPhGtgPSPDjQIgWe+l/4ReIRgFQHreHz428VypEP+PwYSHh4cXdq/87dgXH1xEuAbKM169NwqAznrh365XBx2m9wtq//BNk38jleEEgwkPDw8vKl5lmzwOEa6B8bKmAiDV6KQ/cwEwf6VQmnx7rFjey2DCw8PDi9ylg4/FSpUzCddAeEYBkK571z/9Se2mawRrf/PY5IcZTHh4eHgR9tQBYHHybYS1771s3XP4ahQAifnDv/xZdn48PDw8PPW81BV3v5+w9rWXsXO73/lvDDBWuYCdHw8PDw/P7HVd8sd3ENYB9+q+P1CqnM3Oj4eHh4e3n7du61NqITfCNRze3Pf8h2LF8pPs/Hh4eHh4tW8aVJ6Urx9HuIYp/K+qHCyduoWdHw8PDw+vrles/C5WnEoRrmEI/5n3/Tez8+Ph4eHhWfPKnyVcwxD+mypr2Pnx8PDw8Cx705cH7llOuAY5/DfsOkC/4xM7Px4eHh6edU+9FXDtVDvhGsTwn3np/xPs/Hh4eHh4zrzKeYS1/8N//6v/Nj34rFor+7Hz4+Hh4eFZvF3w9tg1e7sIa996xq3/2+Ze8/+x/TpTOr19Izs/Hh4eHp7FptaMIaz9Gv6J/QuAYvkg6bg9+4f/DtkBtrPz4+Hh4eFZLQDuOeLC65OEte/C31jvZ04BoN63qX4fZ6p9dGd1AcDOj4eHh4dnweu+5A+vJqx9Ff6d+mq/yf1v/T82+TNz+LeN7pLwNxUAnt5Eovx4bKx8e6xU+Yn8//uNWrxU/kFy/dYbk+vvM7WtN6rPW3k+Hh4eXqg9NZcWy3dIe2qhiomOK+79FmHtGy+lt9kCwPTy/54lVeFfHK8qANQ5AO6Hf/lh+fo62UFXxT67t5POw8PDw3PZ27S9W+bZl8ZKk1+Qg6wnWvpKwrqtjx/1ziueS38suJeW1mUqABJzT/5732wHFndL+FcXAK6Hf3FiNLZxz6F0Hh4eHl6LvE3l58lc/41Wvo3Qdekf/4n+WFCvW29GAZDc//K/0uQPZjpwQo7+TQXA6M7pEwHdC/9tj7Zt3PVKOg8PDw9vgbyxyltlrn+6NecQ7P48/bFgXkZvRgHQuX/4qwUcxsqPxktldWReVQC4Gv7rtz0u5il0Hh4eHt7Cel2X3nF2Yv3WvZ6fQFicvI/+WDAvayoAUvuH//TR/54T1fv+VQVAcXz6XAB3l4wcP4/Ow8PDw/OH13nFnz/dkqsHRncfQX8siGcUAOna4T/zctB56kjfKADUOQDuh//Ej+k8PDw8PP942uvefWjiqq13eX7pYGnydPpjQbysfvRfx1NLOBoFQGnC/fBXO8PVe1bSeXh4eHj+8to2jv+D5/cNKFX+jf5YEC/T2Bub/J5RADjZERrvDJXf03l4eHh4PvTWTSVjxfK4tzcNqlxFf/jVK5X/4PSo3+LO8GE2Nh4eHp5PvbHy1d7eMbD8bfrDr97Y5BYPw1/anjPY2Hh4eHg+9TZV3uLx7YJ/Tn/41RubrHj6HtCmB49nY+Ph4eH51CtNvsTT2wUXy7fRH371LNwruqmd4fMTR7Kx8fDw8HzqbZoc9nitgLvpD796Xq8adfX4c9jYeHh4eD71ipODni4UVJq8h/7wpxfzfMnIOgUAnYeHh4e3wN48BYBrawXoBQD94bfwt1EAON4Z5ikA6Dw8PDw8H3g1CgBXFwqSAoD+8F/4z9wd0NuzP2sWAHQeHh4enk+8OQWA66sEFsv30B++8uLS2mee37B6q0y1b2xiZ5hTANB5eHh4eD7yTAWAJ0sEr79/C/3hq/BPWCsApsN/h+wA253vDKYCgM7Dw8PD85mnFwCehL88P7l+2xb6wzfhn9RbowJAwn90Z3UB4GRn0AsAOg8PDw/Ph54UAF6Fv3JMBQD9sbDh3ymtw1QAzHcOQGWqbXSXhL+pAHC6M0gBQOfh4eHh+dNr37Bz2KvwNxUA9MfCeim9zRYAM1+tFf7F8aoCQJ0D4HRnSG6457l0Hh4eHp4/vewnb13tVfhPt5lzAOiPhfPS0rpMBUBi33fsd8bmbgn/6gKgmZ1h0drNS+g8PDw8PH96z7ngmmM71t37zcRVW592PfyVVyzfQ38smNetN6MASM689F+jAIiXJuTo31QAjO6cPhGwmZ1h8UXX9dB5eHh4eP72nvkfNyyNFycui42VH3X1DrGmOwHSHy31MnozCoDO6vA3FQDxUlkqteoCIOZCJWgqAOg8PDw8PL97X3xwUWys8gmZyx925T4xNgsA+sM1L2sqAFL7h/9sAVCpLgCK49Ofc+NlIL0AoPPw8PDwguQVHzpMwvvS2Fj5iaZuEmejAKA/XPWMAiBdO/yNAqC0rwBQ5wC4Ff6q6ecA0Hl4eHih9k4//bTk4ODAUdLyhUL+RQMDhTPk8TV9fX1n9ff3v1bTtNfLv/8pl8u9QR7/UdqZ8rmXSztF/r08n8+/UNph8u+kr/7e0cljY8XK1x3fIdZiAcD+57qX1Y/+63jmAqA04Wr4T98EYsM9z6Xz8PDwwuBJkB8hAf5iCenzpX1awvvr8niLfO4B+dpeaVPmJl9z1MTbLc//XV+f9r18vv8qKQzeJwXFq+Xzz5dfo21Btl+pckpsrHyn7ZsGWSgA2P888TKNPVMB4CT4G+4MDZYDpvPw8PD86EnYHqkfpX9KHn8irTJfYM8N/mbCv5Env9cj8jv9XNoV8vk3yv9f0LLt99m9nfHRibWJDduesHzpYIMCgP1vIT39HABPwr/BcsB0Hh4enl889fK7/lL9JgnVe90Ia7fDv07bKe06+d3Ple8/yuvt94yP/3h5ct3W31m6b0CdAoD9b6E9h8Fv+WUgGwUAnYeHh9dKb3Cw0C/B+e/SfiFtb4vC2nNPCpjbpRj42MBA4SSvtp/2uncf2nHFXz4TH53Y22g5YPY/v3pehr+NAoDOw8PDa4UnoXiMek9dAvI3fghrrz35O/8s///Y0NDgUk/6Q50bUCzvsFMAsD/7xfMy/C0WAHQeHh6e116hkD+tv79vswTiE34Na4899QrHD6S9cs2aNe2u9seGhw+XIuAmKwUA+7OfPC/D30IBQOfh4eF55Z100kiHhN85Evp/CFhYe+qpcxxkm7y7p6cn41p/XDvVEStVNtYrANif/eXFPA3/BgUAnYeHh+eFp66ll3aOhN+WoIe1l5663FCdAzE8PHyAa/2xac97Y8Xy3rkFAPuz38LfRgHgeL3oeQoAOg8PD88LT0LvNRJsd4ctrL30ZHvt0jTtHa7dhGhT5TVSBDxuFADsz/4L/5m7A3oZ/vMUAHQeHh6e256EmDqj/6awh7XH3p19fdrprvTvWOVUtZ6AWg2Q/dlXXlxa+8zzGwW4hHz7RofhX6MAoPPw8PDc9AqFQlbC/3IJr6cJf7e8vm8tXz7c9EJubaPjJyWu2nYb+7Ovwj9hrQCYDv8dEvjbnYX/nAKAzsPDw3PTU7fl1TTtvmiHtTeebNc98vjWZvv3kI/eOMD+7JvwT+qtUQEg4T+6s7oAsBv+pgKAzsPDw3PLGxwc7JLAuoywbon3jd7e3kPZ/wIf/p3SOkwFwHznAFSm2kZ3SfibCgAn4a8XAHQeHh6eW14+nz9Ojvx/S1i31NumadpK9r/Aeim9zRYAM1+tFf7F8aoCQJ0D4Cj8panVAOk8PDw8NzwJojMk/PcQ1q33ZLs/qa4UYH8OnJeW1mUqABL7vmPuGf/F3RL+1QWA0/BXz1u0dvMSOg8PD8+F8H//3Pv1E9at96QI2GhcLsj+7HuvW29GAZCceem/RgEQL03I0b+pABjdOX0iYDO3C1580XU9dB4eHp5Tb2RkJCGhs4Gw9o8n/XGDuvqC/dnXXkZvRgHQWR3+pgIgXirL0X91AdBs+KsTB00FAJ2Hh4dnyzvmmGM6c7nc9YS1L71b8vn8IezPvvWypgIgtX/4zxYAleoCoDg+/Tk3FgrSCwA6Dw8Pz+6Rf0pC5ruEtX89TdN+PzCQP4r92ZeeUQCka4e/UQCU9hUA6hwAt8JfNf0cADoPDw/PstfT09Mh4fJtwtr/njzevnz50FHsz77zsvrRfx3PXACUJlwNf/V/dRUAnYeHh2fVU0vVSvh/lXANlPerkZGVh7M/+8rLNPZMBYCT4G+4VkCD5YDpPDw8PPOHfltfwjVgnvTbDbWuDmB8+NnTzwHwJPwbLAdM5+Hh4Zk/1Br1hGtwPXWJIPtzkDyHwW95lUAbBQCdh4cXXU+C5CXGgj6Ea3C9RjcLYnz4yfMy/G0UAHQeHl50vWXLlv2VhMcE4RqaOwauZHwEwfMy/C0WAHQeHl50PfW+sYTGzwjX8HjSn/fPt4AQ48NPnpfhb6EAoPPw8KLtydHiRwnX8HlSBPwX48PfXszT8G9QANB5eHjR9iQolpvf9ydcw+VJcfdmxodfw99GAeAo/OsUAHQeHl60PXWnPwmIOwjX8Hpq5cZCocCS8D4M/5m7A3oZ/vMUAHQeHh6ehMN/EK6RuF3wZsaHr7y4tPaZ5zcKcAn59o0Ow79GAUDn4eHhSaAcJeHwGOEaDa9QyK9hfPgm/BPWCoDp8N8hgb/dWfjPKQDoPDw8PP3o/3rCNTqepml3rl696hDGx4KHf1JvjQoACf/RndUFgN3wNxUAdB4eHp76UNeIE66R9N7N+FjQ8O+U1mEqAOY7B6Ay1Ta6S8LfVAA4CX+9AKDz8PDwTEf//0sYRnKtgO3ytTTjY0G8lN5mC4CZr9YK/+J4VQGgzgFwFP7S1GqAdB4eHp766OvTXkwYRnqtgHczPlrupaV1mQqAxL7vmHvGf3G3hH91AeA0/NXzFq3dvITOw8PDU8+TMPgpYRhdT70KcMwxx3QyPlrmdevNKACSMy/91ygA4qUJOfo3FQCjO6dPBGzmdsGLL7quh87Dw8MrFPKrCUM8TdPOZny0xMvozSgAOqvD31QAxEtlOfqvLgCaDX914qCpAKDz8PAi7EkgXE8Y4kn7A+OjJV7WVACk9g//2QKgUl0AFMenP+fGQkF6AUDn4eFF2BscHFgiR35PEoZ4+qsAJzM+PPeMAiBdO/yNAqC0rwBQ5wC4Ff6q6ecA0Hl4eBH2JBT+kzDEM7VrGB+ee1n96L+OZy4AShOuhr/6v7oKgM7Dw4uut2rVioNkwr+HMMQztccGBwcPZnx46mUae6YCwEnwN1wroMFywHQeHl64vUIh/xLCEK/G2wDnMj4W2tPPAfAk/BssB0zn4eGF38vn+68iDPFqtJ8wPhbacxj8llcJtFEA0Hl4eOHyVqwYPCiXyz1AGOLVaE8PDQ0cy3hbSM/L8LdRANB5eHjh8/r7+1YShnh1vLcz3hbS8zL8LRYAdB4eXjg9TdM+Shji1fG+y3hbSM/L8LdQANB5eHjh9aQA+BVhiDefJ/vHIytWDB/CeFsYL+Zp+DcoAOg8PLzwer29vYfKhL+XMMSr5/X3953MeFuI8LdRADgK/zoFAJ2HhxduTyb8VxKGeBa8ixhvrQ//mbsDehn+8xQAdB4eXvg9mdg/QxjiWfC+z3hrqReX1j7z/EYBLiHfvtFh+NcoAOg8PLxoeLlc7mbCEM/CEsF7ZHdpY7y1LPwT1gqA6fDfIYG/3Vn4zykA6Dw8vGh4IyMjCXW7V8IQz4onRcALGG8tCf+k3hoVABL+ozurCwC74W8qAOg8PLzoeDLRH08Y4tnwzmS8eR7+ndI6TAXAfOcAVKbaRndJ+JsKACfhrxcAdB4eXrQ8TdPOIgzxbHgfZrx56qX0NlsAzHy1VvgXx6sKAHUOgKPwl6ZWA6Tz8PCi5UkB8CHCEM+G9zXGm2deWlqXqQBI7PuOuWf8F3dL+FcXAE7DXz1v0drNS+g8PLxoeWq9d8IQz6qXy+V+x3jzxOvWm1EAJGde+q9RAMRLE3L0byoARndOnwjYzO2CF190XQ+dh4cXLU/TtJ8Thng2nv8Q4811L6M3owDorA5/UwEQL5Xl6L+6AGg2/NWJg6YCgM7Dw4uIJ0d02wlDPDvthBNOeAbjzVUvayoAUvuH/2wBUKkuAIrj059zY6EgvQCg8/DwIuKtWbOmXS31Shji2WnqUkDGm6ueUQCka4e/UQCU9hUA6hwAt8JfNf0cADoPDy8inr4GAGGIZ6vl8/0nMd5c9bL60X8dz1wAlCZcDX/1f3UVAJ2HhxcdTwqAYwlDPLttYKDwasabq16msWcqAJwEf8O1AhosB0zn4eGFy9M0rZcwxLPrFQqFNzLeWu3p5wB4Ev4NlgOm8/DwwucVCvmVhCGefa/vbMZbqz2HwW95lUAbBQCdh4cXfG9goHAyYYhn18vn+89jvLXa8zL8bRQAdB4eXji8wcGBUwhDPAfe+Yy3Vntehr/FAoDOw8MLjydHci8lDPEceOcy3lrteRn+FgoAOg8PL1xePp8/jTDEs+tpmvYWxltrvZin4d+gAKDz8PDC5/X1aS8mDPHselIAvJ3x1srwt1EAOAr/OgUAnYeHF05PJvOXEoZ4dj0pAN7NeGtd+M/cHdDL8J+nAKDz8PDC68nEfjphiOfA+xfGW0u8uLT2mec3CnAJ+faNDsO/RgFA5+HhhduTI7mXE4Z4Drx/Z7y1JPwT1gqA6fDfIYG/3Vn4zykA6Dw8vPB7MpGvIQzx7HpSOF7IePM8/JN6a1QASPiP7qwuAOyGv6kAoPPw8KLhyWR+JmGIZ9eTAmAt483T8O+U1mEqAOY7B6Ay1Ta6S8LfVAA4CX+9AKDz8PCi4+VyuX8gDPHserLffITx5pmX0ttsATDz1VrhXxyvKgDUOQCOwl+aWg2QzsPDi44nR3KvJwzx7HpSAHyS8eaJl5bWZSoAEvu+Y+4Z/8XdEv7VBYDT8FfPW7R28xI6Dw8vOp4UAG8iDPHselIAfJbx5rrXrTejAEjOvPRfowCIlybk6N9UAIzunD4RsJnbBS++6LoeOg8PLzqeTObnEIZ4DrxLGW+uehm9GQVAZ3X4mwqAeKksR//VBUCz4a9OHDQVAHQeHl4EPJnI30oY4tk1NE27kvHmqpc1FQCp/cN/tgCoVBcAxfHpz7mxUJBeANB5eHgR8WQifwdhiGe35XK5qxhvrnpGAZCuHf5GAVDaVwCocwDcCn/V9HMA6Dw8vIh4UgC8hzDEc9BKjDdXvax+9F/HMxcApQlXw1/9X10FQOfh4UXHk4n8XwlDPAfelxlvrnqZxp6pAHAS/A3XCmiwHDCdh4cXLk8m8wsIQzz7Xt9XGW+t9vRzADwJ/wbLAdN5eHjh8/L5/o8Qhnj2vb6vM95a7TkMfsurBNooAOg8PLzgezKZf5wwxLPr9fVp/8V4a7XnZfjbKADoPDy8cHgysX+KMMRz4H2H8dZqz8vwt1gA0Hl4eOHx8vn+zxGGeA687zHeWu15Gf4WCgA6Dw8vXJ4UAJcRhnh2PU3TbmC8tdaLeRr+DQoAOg8PL3yeTOSXEIZ4dj3Zb25kvLUy/G0UAI7Cv04BQOfh4YXTk4n8CsIQz66Xy+X+l/HWuvCfuTugl+E/TwFA5+HhhfHIP3ewCn+ZyB8lDPEceE9Lu1a+dgTjzVMvLq195vmNAlxCvn2jw/CvUQDQeXh44fN6e3uPksn7T4QhXrOeFJC75HvyjDfPwj9hrQCYDv8dEvjbnYX/nAKAzsPDC583NDT0TJm07yK88NzyZH/aLe0Yxpvr4Z/UW6MCQMJ/dGd1AWA3/E0FAJ2Hhxfa9/y/QnjheeDdsmbNmnbGm2vh3ymtw1QAzHcOQGWqbXSXhL+pAHAS/noBQOfh4YXTk0n9RYQXnleeFJfnMt5c8VJ6my0AZr5aK/yL41UFgDoHwFH4S1OrAdJ5eHjh9GSS/jHhheeVl8vltqxeveoZjLemvLS0LlMBkNj3HXPP+C/ulvCvLgCchr963qK1m5fQeXh4oQz/JYQXntfewEDhTMabY69bb0YBkJx56b9GARAvTcjRv6kAGN05fSJgM7cLXnzRdT10Hh5e+DxN0y4gvPBasErglxlvjryM3owCoLM6/E0FQLxUlqP/6gKg2fBXJw6aCgA6Dw8vRF4ul/sfwgvPa08KzR2MN0de1lQApPYP/9kCoFJdABTHpz/nxkJBegFA5+HhhciTSTpp9YY/hCFes54UAccxfm17RgGQrh3+RgFQ2lcAqHMA3Ap/1fRzAJh88fBC5OXz+RcSXnit8uTx7xi/tr2sfvRfxzMXAKUJV8Nf/V9dBcDki4cXLk+OyF5OeOG1cKGg9zF+bXuZxp6pAHAS/A3XCmiwHDCdh4cXPE8m5bcSXnit8qQAuJLx64WnnwPgSfg3WA6YzsPDC6YnE/KHCC+8FnpfY/x64TkMfsurBNooAOg8PLxgeDIhX0Z44bXKy+VyP2L8euF5Gf42CgA6Dw8vOJ6maWOEF14LvVsYv154Xoa/xQKAzsPDC5YnE/KXCS+8VnlScP6e8euF52X4WygA6Dw8vOB5MilfR3jhtdC7k/HrvhfzNPwbFAB0Hh5eML1cLnc94YXXKk/2t7sZv26Hv40CwFH41ykA6Dw8vOB6mqZtJrzwWuj9hfHrbvjP3B3Qy/CfpwCg8/Dwgu3J5L2Z8MJrlZfL5e5i/LrmxaW1zzy/UYBLyLdvdBj+NQoAOg8PL/hef3/fVwkvvBZ6tzF+XQv/hLUCYDr8d0jgb3cW/nMKADoPDy8cXl+fNkZ44bXKy+VyP2P8uhL+Sb01KgAk/Ed3VhcAdsPfVADQeXh44fHy+f7PEl54LfS+x/htOvw7pXWYCoD5zgGoTLWN7pLwNxUATsJfLwCYfPHwwuXJZP5+wguvVZ60LzJ+m/JSepstAGa+Wiv8i+NVBYA6B8BR+EtTqwEy+eLhhcuTCf1Mwguvhd4nGL+OvbS0LlMBkNj3HXPP+C/ulvCvLgCchr963qK1m5cw+eLhhcuTiblAeOG1ysvn8+czfh153XozCoDkzEv/NQqAeGlCjv5NBcDozukTAZu5XfDii67rYfLFwwuXt2zZsoMIL7xWeQMDhRczfm17Gb0ZBUBndfibCoB4qSxH/9UFQLPhr04cNBUAdB4eXog8maS3El54rfCGhgaOYPza9rKmAiC1f/jPFgCV6gKgOD79OTcWCtILACZfPLyQeblc7r8IL7wWeFsYb448owBI1w5/owAo7SsA1DkAboW/avo5AHQeHl7IPE3TPkB44bXAu5bx5sjL6kf/dTxzAVCacDX81f/VVQB0Hh5e+DwpAE4mvPC89mQ/exvjzZGXaeyZCgAnwd9wrYAGywHTeXh4wfQGBwe7ZIJ+nPDC89Lr7e1dxnjzytPPAfAk/BssB0zn4eEF28vlcj8kvPC88mT/ekB2szjjzSvPYfBbXiXQRgFA5+HhBcvTNO09hBeeh16R8eal52X42ygA6Dw8vOB5vb29xxJeeB56ZzDevPS8DH+LBQCdh4cXXE8m6d8QXnhue7lcbs/IyEiK8eal52X4WygA6Dw8vGB7+Xz/hYQXntuepmmbGG/eejFPw79BAUDn4eEF31u+fLhHJvGnCS88l72/Zrx5Gf42CgBH4V+nAKDz8PDC48lEfgPhheei9xfZzdoYb96F/8zdAb0M/3kKADoPDy9cXqGQfw3hheeWp2na+xhvnnlxae0zz28U4BLy7Rsdhn+NAoDOw8MLn3f00c9LqKM2wgvPBe+x3t7eQxlvnoV/wloBMB3+OyTwtzsL/zkFAJ2HhxdeT47a3kF44TXryX60gfHmWfgn9daoAJDwH91ZXQDYDX9TAUDn4eGF2+vp6cnkcrndhCFeE97T0pYw3jwJ/05pHaYCYL5zACpTbaO7JPxNBYCT8NcLADoPDy8anhy9XUAY4jn1ZP/5CuPNEy+lt9kCYOartcK/OF5VAKhzAByFvzS1GiCdh4cXDa9QKGQbvQpAGOLNd/Sfz+dfyHhz3UtL6zIVAIl93zH3jP/ibgn/6gLAafir5y1au3kJnYeHFx1PJvL3EoZ4dj05+h9jvLnudevNKACSMy/91ygA4qUJOfo3FQCjO6dPBGzmdsGLL7quh87Dw4uOp27fmsvlthCGeFafK/vLo/L4XMabq15Gb0YB0Fkd/qYCIF4qy9F/dQHQbPirEwdNBQCdh4cXi8wqgWcRhng2jv4/xHhz3cuaCoDU/uE/WwBUqguA4vj059xYKEgvAOg8PLyIeTKx/4QwxLNw9L9l6dKl3Yw31z2jAEjXDn+jACjtKwDUOQBuhb9q+jkAdB4eXsS8fD6/VI7sniAM8RoUAK9gvHniZfWj/zqeuQAoTbga/ur/6ioAOg8PL5pePt9/MWGIV+el/68z3jzzMo09UwHgJPgbrhXQYDlgOg8PL7ze8PDgsyQY/kgY4tVoE1IALGa8LaSnnwPgSfg3WA6YzsPDC7+Xz/eP5HK5JwlDvDlH/2cxPhbacxj8llcJtFEA0Hl4eOH0ZMJ/P2GIZwr/LzE+/OB5Gf42CgA6Dw8v1F5bLpf7IWGIJ/vB3fl8/hmMDz94Xoa/xQKAzsPDC78nk/5hMvlvJwwj7T0mLc/48IvnZfhbKADoPDy86Hiapq2UIuAJwjCy3psYH/7xYp6Gf4MCgM7Dw4ueJ0XAuYRhJL3LGB9+Cn8bBYCj8K9TANB5eHjR9aQI+BzhGh0vl8vdsHr1qmcwPvwT/jN3B/Qy/OcpAOg8PLzIe+qkwOsJ1/B7Uuz9amRk5eGMD994cWntM89vFOAS8u0bHYZ/jQKAzsPDw1MfatVACYcfE66hPvK/a/nyoWMYH74K/4S1AmA6/HdI4G93Fv5zCgA6Dw8Pz+ypI0MpAn5BuIYy/LcMDBReyPjwVfgn9daoAJDwH91ZXQDYDX9TAUDn4eHh1fJWrBg+QoqAXxOuoQr/ByT8lzE+fBX+ndI6TAXAfOcAVKbaRndJ+JsKACfhrxcAdB4eHl49T8LmTYRrmLy+TzM+fOWl9DZbAMx8tVb4F8erCgB1DoCj8JemVgOk8/Dw8Op5+Xz/syQ4niZcw+HJ0f/LGB++8dLSukwFQGLfd8w947+4W8K/ugBwGv7qeYvWbl5C5+Hh4TXyJDxuIlxD4VVWr151COPDF1633owCIDnz0n+NAiBempCjf1MBMLpz+kTAZm4XvPii63roPDw8vEaepmn/j3ANg9f3JfZnX3gZvRkFQGd1+JsKgHipLEf/1QVAs+GvThw0FQB0Hh4e3ryehMdRhGvwvYGBwpnsz77wsqYCILV/+M8WAJXqAqA4Pv05NxYK0gsAOg8PD6+hJ2HyC8I10F5leHjgmezPvvCMAiBdO/yNAqC0rwBQ5wC4Ff6q6ecA0Hl4eHgNPU3T3ka4Btorsj/7xsvqR/91PHMBUJpwNfzV/9VVAHQeHh6eFa+3t/fQ+VYLJFyD4Gkj7M++8TKNPVMB4CT4G64V0GA5YDoPDw9vztsA1xGuwfOkcPsj+3PQPP0cAE/Cv8FywHQeHh5ejbcBTiFcA+m9i/05aJ7D4Le8SqCNAoDOw8PDk4+4hMmfCNfgeHL0/0g+nz+E/Tlonpfhb6MAoPPw8PBMbwO8jXANjqdp2pXsz0H0vAx/iwUAnYeHh2f2BgcLi9UlZYRrILy90pawPwfR8zL8LRQAdB4eHl4tL5/v/yTh6n8vl8tdz/4cTC/mafg3KADoPDw8vPm85cuHjtI07RHC2t+eFAD97M9BDH8bBYCj8K9TANB5eHh4jTwJl4sJa/96UqB9m/05mOE/c3dAL8N/ngKAzsPDw7PiScg8U4qAPYS1L7298vkc+3PgvLi09pnnNwpwCfn2jQ7Dv0YBQOfh4eHZ8eQo80LC2pfeNezPgQz/hLUCYDr8d0jgb3cW/nMKADoPDw/Prrd06dJuCZtthLWvvMfU6o3sz4EL/6TeGhUAEv6jO6sLALvhbyoA6Dw8PDynnqZpryOsfeV9gv05cOHfKa3DVADMdw5AZaptdJeEv6kAcBL+egFA5+Hh4TXpqbsD3kRY+8LbVigUsuzPgfJSepstAGa+Wiv8i+NVBYA6B8BR+EtTqwHSeXh4eM16vb29y3K53FOE9cJ6mqa9iv05UF5aWpepAEjs+465Z/wXd0v4VxcATsNfPW/R2s1L6Dw8PDw3PPXSM2G9cJ4UYN9ifw6U1603owBIzrz0X6MAiJcm5OjfVACM7pw+EbCZ2wUvvui6HjoPDw/PDW9kZCSllp0lrBfEqyxbtuzZ7M+B8TJ6MwqAzurwNxUA8VJZjv6rC4Bmw1+dOGgqAOg8PDy8pj1N05ZLe4qwbq0nhdcb2P8C5WVNBUBq//CfLQAq1QVAcXz6c24sFKQXAHQeHh6ea54E0scI69Z5UnB9hf0vcJ5RAKRrh79RAJT2FQDqHAC3wl81/RwAOg8PD88179RTVx8swXQzYd2SI/8tJ5xwwjPY/wLnZfWj/zqeuQAoTbga/ur/6ioAOg8PD89tb/nyoSUSTrsIa0+9x+Xof4D9L5BeprFnKgCcBH/DtQIaLAdM5+Hh4Rkfvb29x0ronGPVkxB7Ua1LAwl/17zzrfavfO9pVlcGZHz4xdPPAfAk/BssB0zn4eHhDQ4OdkkgvVYC5MemwHqjVU++/52EtfuehPlVVvtXzB75fmPp5t9omva2Wm8bMD785hXLT3oW/qptqhzDxsbDw5v7kc/neyU0LleXl9UInz0SIsdZ9eQ56wl/V8P/R/KYtNK/uVyvujTzlzWMR+Xx89JWMT786o1N7vEs/KffXthzIhsbDw9PfQwPDx8gwX62hMItFsLrVytXDh9q5fcbGRlJqJvUEP6uhP/vli1bdpDV/pXnfMaCe6e0fxkYGFjE+PCTV5q8x7Pwny4AJt/OxsbDi7Yn4ZPXj9IftBNefX3aBqu/n1o1UMLrZsK/qfDfUigULC/hLu7f2fm9xH9CCsCvFgr5M1atWnEQ42OhvWL5Zs/Cf7oAKH+LjY2HFz1PLRgjk/250n7VZHidY/X3U+87i/Frwt9R+G9XJ2Fa7V/5/heot2qc/n6yX/xFHj+4YsXw0Yy3hfGkAJj8smfhP93KT8SufmgxGxsPLxqeTOwFdQKZTPYPuRRej4k5aPX3ku9/pnoZm/C35e2Q8O+xur+otwikT+5w4/dTrwrI166Vx9XyY+OMt1aF/8xbAB/0LvxnVxj8FJ2Hhxde78QTly+Wyfx8mch/4UV4STg8IO1Iq7/fwEDhUAmoXxP+lp67VdoSG+/5J6V936Pf707pt/fk8/lDGG/ehv/M3QHHyq/wNvz1VwE2TSyj8/DwwuUNDQ0O9vf3rZPJfLIF4XWbnUvLVqwYPkKcnxL+dduf5HuPsrO/yHNKLfj9HpN2tXzfMOPNdS8urX3m+aWHn103vCXk2zc2E/6zRcCdsasqB9N5eHjB9latWnlwoVB4o0zON7U6vHK53P/KY9rq3zs8PPgs8b5G+Nds/6feLrGzv8jR+YcW4O/9jbo5VE9PT4bx60r4J/YVADPnAfx5/vDfIYG/vcnw119JKJZvPfyirx1N5+HhBc/L5/NHytH+JyQEdixweH1XwqDD6t+7bNnx7U6CK8zhL9vji+oGTDaP/N+1kH+vOuEwn++/Sr3qxPh1HP5JvZkKgNLkFTXet59qH91ZXQA0E/762wjJddu2HfDpX55B5+HhBcNTJ2fJBHy9n5bgld9ls/lGNRbvGPhKq5chhnhhH3Xb5Pfa3V9ke5/np79X/v+/UpD+40knjXQwfi2Hf6e0DlMBEDcKgJfMDf+20V0S/qYCwIXwN7+NkLxyy3faNu5YHZuaitN5eHj+8tQNe9R94NX77n4NQwmlr6tXAuz8vfJznq+/pBzFI/+tUgCc6CD8z5Xn7vXp37tVfr8LjBsMMX7n9VJ6my0A9n3HuqmkBPXu2fAvjlcVAOocADfDv6qYKJUfkALk2lipcqH87PNipT1vqtfioxNv7rr0rvPTl9zxVqOp/6vPN3ouHl7gvE17/knGxtGtmjzU2eDSLjVf3+3zMPzeypXLF9n5e0dGRlL63ev2Rij8vzb3/X6L4f+egPy9j8s++wVpQ4T/fl5aWpepAEjs/52lyUtn3qffLeFfXQB4Fv54eHj1vFtixfLqFkwebTLRq5Xc/ntuKAYkDH924okr/sruZCl/80nS/hzy8J9QCy052V9k23w0oMWOuhT1H+eeJxLR8O/Wm1EAJPe99G/6iI9NHh8vTcjRv6kAGN05fSIgkzkeXku9LbFi5e/tvD3mZPLQ79T3dgn+u4J+JKxuSjM8PHSC3clSnQgnf/9H1M1owhb+sk029fb2Hmp3f9Gv87866CdMqntHyOMH8/n8YREN/4zejAKgs2b4609ob9u4+/vmAoDwx8NrpVd+ODZW+UDsmr1dXk4e6rpvmRw/W+82rkEMQ/l7dsnXljuZLAcHB/rE+G4Ywl+C/+f1tkO9/UXdgEeef2PIrpZ4XNqXCoX8iRE7ByhrKgBS9cJ/+sYAyfX3vWi6ACiOT58LwGSOh9ey8L8uNjbxXC8nD5lERyQkr5fJ8OkQnwCnJvtznG4/CYnTJABvCmj43yb9++pYndvp1ttfent7l8nz7w75pZI35fP9Zx199PMSETgB2CgA0vOGv+lJ6rKAZNvG8R8S/nh4LfKuuv8vbRt2vdSryUMtkyuBdpZM7LdG7NK30Xo3DGq0/dSlj9K+F4S/V/WtfP416lwOp3+ves9cnIejcp8EVejIuHibWkEyxFcPZPWj/zYrT1QFQCK+cTwXGys/zWSOh+eht27rk51X3HPxAZfd0e3F5KEu45MJ7t1qedeoXvcuf//v8/n8C5uZfMU4QdoVsh0nffhKxzXSVjWzv2ha7gC9WIrqTZImpH1YnScQwqsHMpY8UwEQN18RwGSOh+e+l1y/9fcHfurmlV5MHmoi08/ernDHu+kjvUfViY7ml8WdTL7q1QSx/kEev6mH70L8veqtm5/I3/OWRovlWNlfxBpSi+9wh8Q+Y8XJDeo+EZG7dHC/9wc27Dpg+kxkJnM8PPe8dVufSl1x98f7znrnwR4swXucTGLr9UVUuN3t/oXAj2QbHe3G5CvegequguJtlMd7PP57d6m1DORnvaHRUarV/eXkk1cdKtvjo/pdAQn/6va0fs+EQhQvHdz3USyvavRWAOGAh2fNS1617c8HfuJnL3J7sOfz/cPqpWAmc0tFwMOyvS5ctWrlM92cfJcvH+4R9/XSPim/33f0o+rHbf5uqv/+IkH/w/7+vkvFOndoaLDP7f1lYKBwutOj/qjtL9J+KEXXadELf+NjbPIiJnM8vOa8jiv/8uXj3vLJ57g52AcHB06Sye3bdm/RGuHJ3Oz8USb2l3s8+aoTCQ+Xn9Orr6Xwt+oMfXVTHvn3mfLvV0jYnyKtT/59pLqnvZfhUCjkT5Cf+3VWRXTk/Uy235pohb/6uHCqLVYsf5PJHA/Pgbfu/ofTl9x+rpuDXSai1TIh3cD69q7cN+Bb8nh8mC8FU3dIzOf7Pyd/52PsL8156v4K0l4WjfA3PjZt746VJm8lHPDw7Kx6ed+fDvnITwbdGuxDQ4Mr+vq070Z18vXQU+/5Xl3r5K8gh//w8OBz5W/6iLRJ9hd3PSkcfyaPfx3+8Dc+Nu45NFYs30Y44OE19jrW3fvtY9/xmee4MdgHBgrL+vv7viqT0F4mX0+9p/VzKfqDHP6FQv75csT/WTlS3UP/euvJvvJD+Xo+3OGvfySvuv/ZifVbbycc8PDm9zov//MnVp3xsoOaHZy9vcsOkYn8cpnIn2Dybbn3E3VjHfNiMn6fzGVfOUm/WoD9pcWebPMvqfM4ghb+de8OWOuHH/lvm45Krt/yc8IBD2+Ot37b4+lLbv9nFwanWpnvn6XtZvJdcG+nvmxw3o+TuVrTQX6396uz+unfBV946FF5vEgtNR2AV4ri+n1/LN8kKGP84OPP+dBhySvvu45wwMMzvO2V7KdufVmzg1MmkRfIJHITk68vvbv7+/s+PTg4cMqpp77oGQs1maurClTom2/tTP/6yvtToZB/qc/DP2GpADCtJ5zd74ePTb4jViw/TjjgRdq76v5tppP9nA5OddT/HnUTHybfQFw9sFv66yvy9fPVAjpqvQWPJvM2dZWC/Kw3y8/8grT76Y9AeOrS3CtXrVp5mA/DP6m3+gWA/s1p/eg/W/OHj5VzsbHKbwkHvIiG/58Xrf3G8U2+jHuEsfwqk28wPQnmR6TdrN8Z8F3y+HJ1pD4wMLBozZo17fUm82XLjm9Xt/VVQS/G38hz3yHGOvVKkLSH6I9Ae38sFPKaj8K/U1qHqQCouzxwSj/6z5jWFt7/h6+bSsZKlffFipMPEQ54kfHWbf3jsz9w3fObGZwyaZyhL0bCZBleT11dUJbnb5t5G2Gmyee2qVcSuINj6D21xsDbfHBpaEpvswVAo0qhy1QANF5VqPTws2NjlatixfKThA1euE/423r7cy645ling1O9ZCwT/yeZLPHwouGpt4zUCp0LFP5pPc+NAiDR6D2ClKkA6Lb1wzdWjooVJy+TyfJhwgYvhEf+f2om/Ht7ew81XvJnssTDi9R9A/4oj0taHP5GhhsFQLLeS/8JvUIwCoC00x/edfkfDkpd/qd3JNdvuVmOmPYSNnjB97Y90Mx7/jIBLJV2L5MlHl40PRn/6s6ML2lR+Buv3hsFQGe98G/Xq4MO0/sFrpy9ePgFm1/Qdeld58dHy9fExirbCBu8AF7q98hBH//piNPBqQa9TAAPMlni4UXbU+d9aJr2lhbcNChrKgBSjU76MxcAnZbvEuSkkik+dFisVDlFioHz5PFj0orSrpfJ9jux4uQN8vh9o8VL5R8k12+9Mbn+PlPbeqP6vPn7rDY8PCde5rO/P6uJ8H+jDPonmSzx8PBM5wV8TF0F4uFNg4wCIF03z/UntZuuEfQu/PHwIuTJQP8XJks8PLx5vM+feurqgz2ar7KWzuEzFQAJwh8Pzx1PKvwPMVni4eE18K5fvXrVIR7MVxk7t/ttJ/zx8NzxcrncR5jc8PDwLHqbTzpppGNB5iunwU844OHVPPK/kMkNDw/PpneNuv3zQs5/TOZ4eM295/9OJjc8PDwnnhw8bCD88fAC6Kk15GUQ72Vyw8PDc+qpc4cIfzy8YL3sv1IG7+NMbnh4eM166tJhwh8PLwDesmXL/iqXy+1icsPDw3PpjoFPyPeNEP54eP5+zz8t7TdMbnh4eC57O6U9l/DHw/OpJ5X6F5jc8PDwPPJ+ccwxx3R6Ef6Wr/4jHPBc9a4ez8aK5YNm27qJA6vahl0HxK7dkTFa9+d+cUDPWz72rOPP+dBhRlv62g888+BP35KKXTvVUdXWTSVn24+mErELp9qqmot/rwzOc5jc8PDwPPYuc3l+Nm79b/kmQRnCC881rzR5j28WClq/dW/Hlfd+ye7fKwP6eDn6f5TJDQ8Pz2uvUMif5WL4JywVAKb1hLOEF55rnsUCoCWrBK7fXu5Yf99hdv7Onp6eDuN9fyY3PDw8rz1N08aXLx86zoXwN9b7qV8A6N+c1o/+s4QXnmuehQKgZUsEF8fPtfu3ymD8KJMbHh5ei71vNxn+nfpqv8m6t/7XvzmlH/1nTGsLE154zXsNCoCWhf9o+ZfGeQE2XvrPq/W8mYzw8PBa7cnjax3Ozym9zRYAjSqFLlMBkCG88Fzz6hQALQt/5V29Z6Wdv3VkZCShXvpnMsLDw1sITw4+xnt7ew+1OT+n9Tw3CoBEo/cIUqYCoJvwwnPVm6cAaGn4j01+1cFL/+9lMsLDw1tIT+ahTTbmZyPDjQIgWe+l/4ReIRgFQJrwwnPdq1EAtDb8y0/ENlWOsfP35vP5I2UwPsxkhIeHt9BeLpc70eLVexlTAdBZL/zb9eqgw/R+AeGF5743pwBo8ZG/apfY/XtlMH6NyQgPD88PnhQAv12zZk17g/k5ayoAUo1O+jMXAJ2W7xJEGOLZ9UwFQMvDvzj5UOyLDy6y8/fK0f+pTEZ4eHg+885pMD8bBUC6bp7rT2o3XSNI+ON55+kFwAIc+U/Jz/6Inb931aoVB8pAu5XJCA8Pz29rBRQKhWyd+Tlr6Rw+UwGQIPzxPPekAFiQ8C9OPiiPh9j5e/v7+97AZISHh+dHT9O0tXXm54yd2/22E/54rfDixfI9LQ//mfZRO3/v6tWrDpFBeReTER4enk+9hwYHBxc3NT87DX7CEM+Jl1h//5aWh3+x8khs455D7fy9+Xz+fCYjPDw8P3v5fP/lLBGMFxgvuX7blhYf+av3/i+18/euWrXymTIw72UywsPD87OnadqjQ0ODzyf88QLhzRYArQr/Yvmp2Kby8+z8vYVC4S1MRnh4eEHw8vn+Kwh/vEB40wVAq8J/pn3Fzu936qmrD5ZBdTeTER4eXhA8TdMe6e3tPYzwx/O9p84BaGH4T8WKe5bb+f36+/tez2SEh4cXMO8/CX8833vqKoCWhX9p8la7v58MpFuYjPDw8ALmlXt6ejKEP56/vQbLAbu8UNAb7YW/tprJCA8PL6ALBb3dxhwdJ7zwWu/ZLACaCP9KbN22tJ3fTwbRN5mM8PDwgujlcrm7ZYpraxT8+n1/LN8kKEN44bnm2SgAmrpjYHHyMju/nwyeY2QQ7WUywsPDC7B3RoPwT1gqAEzrCWcJLzzXPIsFQNO3C766rNn5/TRN+xSTBx4eXpA9mcduqBP+xno/9QsA/ZvT+tF/lvDCc82zUAA0v1ZA5bd2fr/BwcEuGTwTTEZ4eHgB9/bm8/njauR5p77ab7Lurf/1b07pR/8Z09rChFdIvGPfdfHi9OduO7vjynu+lFy/9beJDdseiI/uHo8Vy7abel5i/bbdiXVb9zX5/7zeWPlpb8N/+uz/99jZflI1v57JAw8PLwyezGcXz5n/UnqbLQDqhb+qFLpMBUCGcA2Hl17/q2znlfd8MrHu/j0tvx1vyzwpMK5+aLGd7ScD5qdMHnh4eGHwcrncrp6eng59/kvreW4UAIlYg/cIUqYCoJtwDYfXvmHn8IIsxNN674d2tp8MlhcweeDh4YXMe5Upw40CIFnvpf+EXiEYBUCacA2H17Zh/G8SG7Y9GoHwn4qVKmfb2X4yUD7O5IGHhxcmT9p/66/eGwVAZ73wb9ergw7T+wWEaxiO/Ed3DkUm/Ivlpzouu3eR1e23Zs2a9lwudz+TBx4eXshWCXxqeHjoaL0ASDU66c9cAHRavksQYe379/wlUO+NRPhPe+Ub7Ww/GSx/zeSBh4cX0lUC/1V/JT/eKHTaTdcIEv4h8Tqv/MvHoxP+lanUpXe91872kwFTZPLAw8MLqfdLqzf8adfPASD8Q+I9/60fPUxCdTIq4a+ev2jtN463uv2OOeaYThk0FSYPPDy8sHrqDqdWCwDCP0Re+pI/vClK4Z+88r7b7Gw/GSCnM3ng4eGF2dM07X2NAsNR8BPW/vY6rrzn81EJf+V0Xn73Z+xsPxkYY0weeHh4YfZyudytMS8+CGt/e8krt/4yKuGvWvZTt5xmdfuNjIwkat36l8kDDw8vhKsEHkn4R8xLrL9/W1TCX9ojvW/810Osbj85+j+ZyQMPDy8i3lsJ/4h58dLEtoiE/1Tyyq3ft7P9ZEB8hskDDw8vCl4ul/tvwj9q3ljl91EI/xmv/C92tpsMijuZPPDw8CLiPd7T05Mh/KPkjU1+NRrhL96myQGr201dFsPkgYeHFzHvDMI/Sl5x8m2RCP/i5EOxH00lrG47TdPewuSBh4cXJU8OfC53dPUf4RpQr/Tws9W98UMd/qbV/2wUAJuZPPDw8CLm/ckIfv2+P21WwyZDuAbUG5v8YsjDX7UPW91+p59+WlIGzySTBx4eXgS9I/U7/rZbvUVw95zAIVyD5G0qP08C8uEQh/9UrDR5utXtVyjkT2TywMPDi6j3Bn29n/oFgP4yQVo/+s8SrgH2xspvDm34Ty8B/NBhVrefDIB/Y/LAw8OLmqe3oqkAqLs8cEo/+jcKAMI1yN7Y5EdDGf5jla12tp8Mom8weeDh4UXLm2nqPACjAKgX/p3SukwFQIZwDYE3Nvn/4qMTT4Un/NXRf/mbdrafpmkPMHng4eFFLfz1AkC1xfXCP6kf/RsFQDfhGh4ve/EvTkqu33pLiFYJXGt1+y1fPrSUyQMPDy963r4CQA6CTptvwlRnB3aYCoA04RpO74CLbz29Y929X4yP7r4/0LcLLlVeZXX7yQB4PZMHHh5e9Lyq+wH8R60Js10/+jcKgBThGhHvC3ueGdv04PESpn2xsUp/o9a+cUfhwIt/PnLQJ25aZTT1f/V5K8931bt2R8bq3ys7/yeZPPDw8KLnVX39O7Ve+jcXAJ2W7xJEuOIFxJPK94dMHnh4eBEOf9V21Jo0jQIgSfjjhdGTAmCcyQMPDy/qnqZpi2sVAAnCHy+k4X84kwceHh7edAFwSq0CgPDHC6WndngmDzw8PLzp9q6qcwBiDj8IG7wgeFIAvIPJAw8PD2/6SoCrYs1+EDZ4QfGkALiCyQMPDw9vuv2E8MeLjCc7/PeZPPDw8PCmXwF4gPDHi4ynadqfmTzw8PDwZtrSpUu7CQe80Htr1qxpl4r3SSYPPDw8vFnneMIGL/Se7OhHMHng4eHhVVkvIWzwQu/Jjj7M5IGHh4dXdS+AswkbvNB7MlD+jskDDw8Pr6p90OrkmyFs8ILqSaX7FiYPPDw8vKpXAK60Mvl2z5mACRu8QHmys1/E5IGHh0f4VxUAX603+aoVAtP60X+WsMELqic7+ueYPPDw8Aj/qgLgxnrhn9KP/o0CgLDBC6QnO/vnmTzw8PCi6/XVWhb41/OFf6e0LlMBkCFs8ILqyY7+LSYPPDy8KIf/3AJA3RytVvgn9aN/owDoJmzwguzJALqRyQMPDy+6Xs1XAHbMnTAT0jpMBUCasMELuic7+s1MHnh4eNH1aq4HsMc8YbbrR/9GAZAibPDC4MkA+CWTBx4eXnS9mt/3uPmlf3MBoM4BiBM2eGHwZEf/LZMHHh4e4V/VnjZPmkYBkCT88cLk5XK5XzJ54OHh4VW9BfDU3AIgQfjjhc3TNO3rTB54eHh4VQXAXXMLAMIfL3Se7Oj/wOSBh4eHV9U+PHsOQMzhB2GD53dvzZo17bKz/x+TBx4eHt700f+WE0444RmxZj4IG7ygeEuXLn2W7Pi/YPLAw8OLsqduACQFwAsIf7xIeSMjIwnZ+V8vO/+tTB54eHhRe89fHt8pLU3440Xak8EyLMXAF2VQPMHkgYeHF1Jvr8xz35bHl8q0F481+0HY4IXJGxwcXJzP918gg+QOJg88PLwweDKf3SftQ/K1o2JufRA2eGH2BgcHTunv7xvL5XKTTEZ4eHgB8x6Tdq3MXy+W6a0t5uYHYYMXFW9kZCQlg+gVUkF/RR4fZTLCw8Pzoyfz05Pyte/KXPW6QqGQtTkHxgkHPLw63vDw8AH6fQS+Jo8PMxnh4eEtpCdh/4S0H8rnz+3t7T3Uwfxn3Pq/zepkmSEc8KLuDQ4OdsmgO0NaSYqBcSYjPDy8FnkP9/f3bc7n+988NDRwRBPzX1y/42/jAkCfLLvnTJiEA17kPXVzIRmMK2RQflwG56+k7WVyw8PDc8uTg4zbZX65dGCgcMbw8OCzXJj/4qb1fuoXAPo3p/Wj/yzhgIc3v7dixfJj8/n8P2uatkkG71YmNzw8PJuBP67OO5J/n9Pb23uUy/NVXF/lt8NUAMTrfXNKP/o3CgDCAQ/PoieD//kymM+V9lUZ0DuYLPHw8Oa0ioT+t2SOeLccPPTG9Ov0PZqvUnqbLQAaVQpdpgIgQzjg4Tn3ZIAfJwP9TdLG1K04mSzx8KLlSdjfL4/XSDtfjvCX1bpUz6P5Kq3nuVEAJBq9R5AyFQDdTOZ4eO56AwMDi2Qi+Nu+Pu1iKQj+RyaNh5gs8fBC4z2mL0D2aQn+V0s7coHmKyPDjQIgWe+l/4ReIRgFQJrJHA/Pe+/UU1cfPDg4MKDWKpD2OWk/rXfZIZMvHp5vvMdlvP5aHovq/XsZt/09PT0dPphfjFfvjQKgs174t+vVQYfp/QImczy8BfJmrjTIv1Aml7OkfUzd8EN/GZHJFw9vATwZf7ul/Sif77+8v7/vvEIhf+LKlcOH+nR+yZoKgFSjk/7MBUCn5bsEMZnj4bXUUzf/kILgZJmQ3iqP62Qy+6k8TjCZ4+G540nI75H2M/n3qDpJT57zkkKh8JyAzS9GAZCum+f6k9pN1wgS/nh4AfOWLx86bmCg8BKZsNTliJ9SZxirJUClPUU44OHt5+2VsbFFxsoN0i5RJ+dJ+2tpz43VWDkvgPNL1tI5fKYCIEH44+GFy5MJLamuQlBHMepVA2mfkYnvv+TxNnl8hHDAC7H3uLS7+vq0H0jbIJ9/t7qbp3prTd3ZM+TzQcbO7X7bCX88vGguiVwo5FdL+yeZLD/Y3z/9suf3pDj4ndOVEQkvvFZ46kRZaX+U9t+yz26Q9gH5/Osk4E9dvny4Z+XKoWcwHzQGHAU/ky8eXvg9mVAP1E9GPFUm5jfK4wXSrpTPf1Mm3lvlcZv5bQbCC88Fb69+A63f6KvdbZTHD8rj2dJepm6cI+0Qxq+7HhsHDw/PidfW29t7WD7fPywT8ysKhfw5MpH/u/z/MzJxq5sffVseb5F2j7SHCMPoeWppbdkP7pP2K3XELp/7grrXvewvF6oz6mVfeZU6q16+/pyRkZEE443wx8PDC6EnE3xKnVWtjuT0KxpeqR/d/Zv8+xP6Ed/XJWBuVIstqbsnShuX4HiCcF04T/rgKXksS7tXPvdb6Y8bpV0v/y6qE0/l8d/VLbDVzW/UCXXy7z51E5ylS5d2Mz4Ifzw8PLymPFU8SKA8q7e391gVMPKxSh5Pk8cz5fHN8vgu9V6wfu+ES9XyzRJYElLad+Xxx9J+Lu138vU71Fng8vWd+rkOj4dkFbkn1Z0lVcGk3p6Rf9+t/l75/M3qGnb1aoxao0Ldllr+f7lecF0o7T3qRjby+Pfy/aerwkwepUbLv2BoaODY5cuHDmf/I/zZ2Hh4eGH14vqrE1l1v4Vly5Y9W0LwKH1xpxMkIPsLhfzJAwOFF0t7WT7ff7q0l8vnT5Mw/Rt1hrk8vkJ/ReNV6khYnvsavThRN3T6e/Wo/q+afO1Mef7rxPxH8V4rj2f19/epo+fT9HMuXqQKHGkr5P+D+hH1Uvn/Evn30epVFFUMqfM01FntRx/9vAT9i0f44+Hh4eHh4RH+eHh4eHh4eLNmnI2Dh4eHh4cXHc+49b/lmwRl2Nh4eHh4eHiBD/+EpQLAtJ5wlo2Nh4eHh4cX6PA31vupXwDo35zWj/6zbGw8PDw8PLzAhn+nvtpvsu6t//VvTulH/xnT2sJsbDw8PDw8vGB5Kb3NFgCNKoUuUwGQYWPj4eHh4eEFzkvreW4UAIlG7xGkTAVANxsbDw8PDw8vcJ6R4UYBkKz30n9CrxCMAiDNxsbDw8PDwwucZ7x6bxQAnfXCv12vDjpM7xewsfHw8PDw8ILnZU0FQKrRSX/mAqDT8l2C2Nh4eHh4eHh+84wCIF03z/UntZuuEST88fDw8PDwgutlLZ3DZyoAEoQ/Hh4eHh5e4D1rV++ZCgDCHw8PDw8PLyqe0+BnY+Ph4eHh4YXDY+Pg4eHh4eER/mwcPDw8PDw8wp+NjYeHh4eHR/izsfHw8PDw8Ah/PDw8PDw8PMIfDw8PDw8Pz4/hb/nqPzY2Hh4eHh5eKDzj1v+WbxKUYWPj4eHh4eEFPvwTlgoA03rCWTY2Hh4eHh5eoMPfWO+nfgGgf3NaP/rPsrHx8PDw8PACG/6d+mq/ybq3/te/OaUf/WdMawuzsfHw8PDw8ILlpfQ2WwA0qhS6TAVAho2Nh4eHh4cXOC+t57lRACQavUeQMhUA3WxsPDw8PDy8wHlGhhsFQLLeS/8JvUIwCoA0GxsPDw8PDy9wnvHqvVEAdNYL/3a9OugwvV/AxsbDw8PDwwuelzUVAKlGJ/2ZC4BOy3cJYmPj4eHh4eH5zTMKgHTdPNef1G66RpDwx8PDw8PDC66XtXQOn6kASBD+eHh4eHh4gfesXb1nKgAIfzw8PDw8vKh4ToOfjY2Hh4eHhxcOj42Dh4eHh4dH+LNx8PDw8PDwCH82Nh4eHh4eHuHPxsbDw8PDwyP88fDw8PDw8Ah/PDw8PDw8PD+Gv+Wr/9jYeHh4eHh4ofCMW/9bvklQho2Nh4eHh4cX+PBPWCoATOsJZ9nYeHh4eHh4gQ5/Y72f+gWA/s1p/eg/y8bGw8PDw8MLbPh36qv9Juve+l//5pR+9J8xrS3MxsbDw8PDwwuWl9LbbAHQqFLoMhUAGTY2Hh4eHh5e4Ly0nudGAZBo9B5BylQAdLOx8fDw8PDwAucZGW4UAMl6L/0n9ArBKADSbGw8PDw8PLzAecar90YB0Fkv/Nv16qDD9H4BGxsPDw8PDy94XtZUAKQanfRnLgA6Ld8liI2Nh4eHh4fnN88oANJ181x/UrvpGkHCHw8PDw8PL7he1tI5fKYCIEH44+Hh4eHhBd6zdvWeqQAg/PHw8PDw8KLiOQ1+NjYeHh4eHl44PDYOHh4eHh4e4c/GwcPDw8PDI/yrf7h5jYCsC7cLxsPDw8PDw2uh5+SHm9cIyLhwu2A8PDw8PDy8FnpOfnjadH/hbhduF4yHh4eHh4fXQs/uD4+b1gjoMi0uEMfDw8PDw8MLhmeYdn54p2mNgFSTtwvGw8PDw8PDWxiv3epNguKmNQKMlmzyh+Ph4eHh4eG13ktYKgBM35w0tYQLPxwPDw8PDw9vYTxLBUD73BZr4gMPDw8PDw/PF168UbXQZmrxJn84Hh4eHh4enk+8/w8N4IqgUPhFeQAAAABJRU5ErkJggg==;" vertex="1" parent="1">
          <mxGeometry x="334.30000000000007" y="440" width="102" height="102" as="geometry" />
        </mxCell>
        <mxCell id="VJpR1qYwohyVPgYZPXll-19" value="" style="edgeStyle=orthogonalEdgeStyle;rounded=0;orthogonalLoop=1;jettySize=auto;html=1;exitX=1;exitY=0.5;exitDx=0;exitDy=0;" edge="1" parent="1" source="VJpR1qYwohyVPgYZPXll-25" target="VJpR1qYwohyVPgYZPXll-1">
          <mxGeometry relative="1" as="geometry">
            <mxPoint x="270" y="540" as="sourcePoint" />
            <Array as="points">
              <mxPoint x="280" y="565" />
              <mxPoint x="280" y="491" />
            </Array>
          </mxGeometry>
        </mxCell>
        <mxCell id="VJpR1qYwohyVPgYZPXll-25" value="" style="shape=image;verticalLabelPosition=bottom;labelBackgroundColor=default;verticalAlign=top;aspect=fixed;imageAspect=0;image=data:image/png,iVBORw0KGgoAAAANSUhEUgAAAKoAAABdCAYAAAA14f0jAAAAAXNSR0IArs4c6QAAAARnQU1BAACxjwv8YQUAAAAJcEhZcwAADsMAAA7DAcdvqGQAABODSURBVHhe7Z0JXFXVvseXQ87zPKdG5pSzZmZRoWmaqS99QBpybXjdyqHndCuH6zW16/U+IeNq2sfs83EIHFIcHhKkpFlKAomKEygoqKSI5IQK+63vam8vj5D5cA6c9f189od9DptzDnv/9n/91n/91zpCo9FoNBqNRqNxMCqYPzU2ZODAgdWHDh06+OGHH449duyYYT6t0TgM5WbPnu0ZGRl57s6dO4aPj0/klClTnjF/p9HYnzfeeKNnSEjIPgR6+vRpY/369UZ8fLyRkpKS+c033wS4u7u3Ng/VaEqeIUOGNNmwYcOqS5cuZSYnJxs//PCDceHCBSMzM1MJlsfXr1834uLibi5btuxv/fr1q2n+qUZjewYPHlzZz89vuhTjb7dv3zb2799vnDhxwsiJAwcOGOHh4UZGRoYRFRWVsGDBAk/5EuV/fyWNxkbMmDFj+E8//XQa4R0+fPi+CHPj1q1bhvwbFWXT09ON0NDQfW+99VYv8yU1muLD29v78V27doXcvHnTOHPmjLF3717VrBeEK1euGPv27TOkVWDL3Lx586oxY8Y0Nd9Coyk8splvuG7dOj/pPe9evXpV+c6EhARTeoUjJiZGRVg6X9IyXPf19Z0xatSoquZbajT5RzbNDy1evHjCyZMnL9+9e9f48ccfDfKixQV24eeff8a3qs6XfP24qVOnjjTfXqPJm48++uiFsLCwo/fu3TOOHDmiRJqXDy0s2AdsRGxsrIGtwF6MHz++s/lRNJo/4u7u3m7Hjh2BaWlpxrlz51Rvnv2SgLQW74ePTU5Ovufv7/8vNze3+uZH02iEGDBgQO3Vq1cvkt4z/bffflMRjoS9PbD8K9E8Ojo69ZVXXpk4evRopxr+Lmf+1JgggD59+ng3b958nhRrUylOUbFiRdGtWzfzCPsgbYY4dOiQkGIVPXv2FNLLHt+4ceMkHx+fYPMQjbMwefLkp3fv3h1B5LIiGZ0mRwUvu00yYsSIdua/oCnLvPTSS622bNnif/Xq1UxTA6WKpKSk9K+++uofLi4utcx/SVOWkAKt9sUXX8yNi4u7ZV7zUo30r5cWLlz4hrP51zILF3L+/Pke0vOdM69xmQGrsmfPnshp06a5mv+upjTi7e3dW/pQVX5XVsG7BgUFZW6Q9O/fv635r2tKAx4eHo39/f2/DA4OzijqcKejc/bsWZV/RbDx8fHXly9f/reOHTvWME9FqaTMp6dcXV2rSJFOdHNzm9WyZcsav/zyi6hbt65o165sd5SlXkVUVJTIzMxUqbVjx44lbNu27QPZknw9d+7cTPMwjQNQbubMmSMYLyfdxPg54+i2GvZ0VLA4FM1QG0udrLQEP02ZMqW3eY409sTLy6uTvCCh1HwymvT9998XuPyurEEZIeWEKSkp7GcEBASsHjRokC4ntAeU361fv94vMTExgwtC4cj58+fNS6UBIuvBgwdVscvJkyfT/Pz8dDlhSWGV38XExKTQ1DEuToWT5sFwjiwrFB4eHvvhhx9STqinw9gKyu9kD/co+cOjR4+q+UjWEKgmd6xywri4ODU1RtqlEGYtmKdWUxy89tpr7bZv376Vyiaad/xXamqqeQmcBwqsERzNOaKTzXmB6xPwr6SzsEtJSUkZ2Cd5fh2qnLDUpaeGDh1a193d/YNnn312Uq1atSrJKCqaNm0q2rRpYx7hXEhhiU2bNomqVauqyiopUtG4cWMhfacoX75gLbm0TkKKXnTv3l1IL5u2a9euWd9+++3nMtKmm4fYjVIzJsyw55gxY8ZPmDBh0/PPPz9InsgKN27cUCVv5EWdldOnTwvZaRSyZRGy+Ra//vqrSE9PF/369SuwUBs2bCiaNGmiygkrVapU+ZlnnnlRin8USxFJH3vaPMwulAqhsgzO2LFjN3l6ev6XbN5rnDp1SvTu3VtF0nLlnLuklnNQrVo1FUXbtm0rpKjECy+8IGrXrm0eUTAQN2I9fPiwis6yBWtQo0aNsTLSRsuIG2MepsnK8OHDWwcGBvrjnRITE1XimmkZmj+CV6UHz8+iQIeUjACvQz0u3pXXlcHidfOyaCxY/Y7xacrvGE2ho0TPVGM7CAR0xuicss85Zyq4hRbq/6f87Nmzx7DMDSkm6ZWMiIgI81RpbAHCJGpSyEL2gEGSnOaGaaGavPvuu72Cg4P3k1qRHlTd0URTjW2gOSelFR0drfYJCtRDPAinFyqr323evPlL2Vu9v/odPzW2g2FUzjOtFnlX9ln/KicYaiXivvrqq84pVBcXl8o+Pj5/iY2NTeMkYeA5gRrbkZSUdD+xT5IfgcoAYf42Z4i0YO+Iapex3SeffLLzZ599FjNhwoSFMnrWlM286NOnT5mvEbUX5FfJtUorpWpTjx8/rvKu5FobNGhgHpUzBc3F2gq7fAovL68eLVu2bPP555+Lzp07q7xdeHi4KvLVFB8yEKriaYT5xBNPqFGnY8eOib59+4pHHnnEPCpveB1pAcxH9sFut0vHjh2JrOLIkSPioYceEj169BCy+VfDeJqiY41YtW/fXo3cyY4TdkuN5BVkkITgwXWxdxCxa1xHoNzdnEgiKnc5Iy2c4MTERPMoTUG4fPmykN5T1KxZU3To0EFERkaKypUrq/NMPUBBIYAQUGrUsO+UK4cwIPgkTgZNExG1a9eu9+9kxvM1+Sc1NVX9PHPmjJAdJnVeuflLO3YR6tmzZ4XsRJmP/g0RlRPLWD7FFfiquLg4ERERYR6hyQs6TtzwXbp0Uc1+cZCSkiIuXLhgPrIPdhFq69atVaSkmCIniKidOnVSEZUmjH3sAL5LkzPnz59X54hyR7YKFYqn3sgKGvaOynZr+q0T+iDwVURXxIzPevTRR0WtWrXE/v37xcWLF82jNGlpaeqGpmf++OOPi+joaHXu2IoDAspjjz1mPrIfDuFRc6NRo0aqI0DzY5X3kSqx8oLOCh6enjzLYmKR8KNYKm5uSv3KGnbzqNQ7EgXyC4MBJKjJCyJUxHvixIkCv05phd68BbMayJLQI69UqZI4cOCAskvkpG0B59hpPSpGn2aqIJD/I6KSD+RC4V8R8N69e0VCQoJ5VNmCqSY07Qh1586dKvXUokULFTWJqFTlc9OS6rMFvD4F2U7rUYkEhTX8VapUUUOu1atXFwy/0tMtCymYrNBzR5RU2dODJ+3EytdETkaXaFVoYerVq2f+hW1o3ry5iI2NVdbLnji8R80Npl+0atVKnUzWlMrIyDB/U3rBe9JaIA6ESCTFm+NDESyZD3woUc7W4H/pvNKRtfUNkRd2mTPVoUOHrnXq1BmJtyxqJCSaIlBSWFxgIg8dsNIInpu8Md6T3jaPGfJs1qyZsj2MDlEXYWs4h2RaEKe0GZlhYWFbN27cuFQKN808xDlYtmyZlxSpKtgtDpgyQaE1ZWxUrDOlojQtLXnx4kX1maVA1H5+yu9sAUXrFFPzJW/sy89xeOLEiW7mZXM+LKEWN3wfKfWW1rwf2Qkpse+EKgwUJfMZ+eJe2TKoz86XoNkDlkBilRkEKvcvL1q06M9Ov8T6zJkzvTghtoJveKbglwp2ax/xIgrWW+J5eyJ9qPocsnlV+9Jfq7lhtDA8traSwJrde+3aNWZW3F67du2n/fv3d96FErKyZMkSL+kn1UmyFdwIRCimWrBw2ooVK4zjx4+r5xGsvRZRI3piU/hM1jdSSz+qRJp9Kwmx8ll4/127dgWNGDGig3mJHA679PqvXLmi0izSW5rPFD+kcugd0yGgk0WPmZwgyXEyBeQhSf+UVDkh4+WMpjEMTA6Zz8QwJz170m05IXVk08EMXlv60dPz5s0bNmjQoMFbtmzRxcBZ8fPz88K0h4aGclOXCHhACyKZFI21xv39fVvATFpeH+9JFMUHEtmJljlF0Zy2nGD2KJ2vwiIj+1XZsk2Tl8O5fWhuTJ8+feClS5du4RtpevgyXHuAf7W8IVOFrf3iACHy+tyQvCbCsvazb3hmLAkb4kPYiJrn+X1WyAb8fdE/jAULFhRqMqQ87/c2bty4kkWPzcuhyY1hw4a57NixYzuRjFQSfrIoEaKwEPGs3jazYelY4GuLAos58Dp4P/439q2InT2SWiIl4ksBGT17dDcaN2qoIj3PW0Lls/n5fWa079zZGDxspOHj46Mic35B+MHBwXs9PDy6m5dAUxDee++9F+WFPMYFZN0jog4XqKThK8eJ7pcvX1ZRC/GS0ywITEPm7+gk0otmP3trkVWoiJQbhQzAiBHDjaZNGhstWjQz2rRuJT9PkjoPHBMU9L9Gz57d5O+aGkOGDjHGeY8zPv300wcKlfewYF+2FGdmzpz5n+YpL5U4xFJ4o0ePrtSrV68/v/zyy3PatWtXV164+52OkoYZm9R40tmjIITyOfZzm28kBaWquhg5okjm0KFDqg6B0bLsSO2oTQpIVSQtWfI/IiDAXz2WohR37twV1atVFYciIkWDBg3F3L/OEStWLBM9ez0hP0c3VQPAqBXvM3LkyD/UijL0ynQeNzc36nZvyCj6dxkAFi1dutTua5wWBYdas/H111+vN2DAgPmurq5vyQtdHqHYQ6wIiekvDFuyqC11BDzHfnYoEEE4DHsy5InIKZjJaT68JVLqaFev/lL4+vio+fVwR4q9WtUqSuCp166JyMio34U6d66oUKG8fL0KKkPB8DDVZxSPv/POO/fXhiWTIi2Lms4jbUSGbKXWr1ix4oOwsLDz6oBSjkMuLjp+/PjOnp6ePk2aNHGzVY1lfqCOAMGSzmICIvtWiR1TP2SzrqZ9U8lEAQezPnNbl5SoiVBlR0j4+vqIKlUqS/UKKcJyKmLzOxbhRbQItWHDRmL58uUqypPK4qbl95Q5Pvfcc6oCjWhOC8TnQ8CyIxa+bdu2SYsXL/7RfNsygUNWT61aterIwIEDB6xZs+Y/ZDN6mgtoDxDPU089paIj6w9w08hOifD391eiwhJQxIxYqAnNS6TWz9TUq6JixQriTvodVVBDzrdu3doqglNXSvkjFoDHRFyEyc1C/e3YsWPVQr0cR0EzxSO8t/xciZ988smfvvvuu75lTaTg0Dk02Xwdl5FkhWzSbsqI0adevXrFMxGogOCXKSXE++3Zs0eJhenINLc08/lZ3dm62RBqSMi3Ijr6iHpMU49dIOmP4BGut/efxIsvDlE3CO9JNEWc3DTcPERvnscDS5Hf3rBhwz99fX09Vq5ceUA29WV/uoMjw7fMbdq06UvZuSmeRGchoEqLIdCtW7eqdE9BsHr69PLff3+y0bhxI6NRowZG2zatjSZyv/1jjxpeXq+p3Kh1LBvZCOu9SHFlySpkbt++fbO7u3v+1+bRlByTJ0/uFRoaup8LDgwakGMsCRAqo1qFSbQjOisdZQm1QYP6RquWLYy+ffsw1n4/b2pt2SEdxd/v27fvlylTpjxvnhKNA1Nu3rx5ntKjxXPxKHBhZEk2q+YltQ2FFSqfK6tQ//v991UU7d6tq0riM9iQl0hh7969yQsXLtTld6WNLl26VJcRdl5CQsJ1ajsZAaJpthWFFWpWAdKMBwUFGTNmTFdrlCLQ7CJly8rFixfTv/76a1/pU+07H0RTNGSHpk1gYGCAFFIGo0mMlTPCVNwgMtmZUjcEpYL5qVGwoqm1EVUtcbLxOOvv2ayW4caNG5k7d+4Mkj7UYcvvNIVg0qRJz8jmMQIBEFkRU0E7PfkhJCREiYkpG3mRXahsWcWa/Xccz/Pys5+cNm3aS+a/5vSUKa9z4MCB+FatWq2UnvVc27Zt+3bt2rU6eUYmqxXnhD8pNJVgZ4YoNa65IbVq7v0b8qPWBkzoY4SJx6dOnUqTzfxHsnM1bunSpcfVAZqyi4uLS63Vq1f/Mykp6TYFItZa9EWFqIdHzW9EzR4xs25MRqQQhk361bv+/v66/M5ZcXV1dZE+b5uMrEVOCdCZCggIUBs+1fKSuZGTQMmH8vcyeqpSwPXr14fp8juN4s033+R7/WPwh4XF6vXHxMSYz+RNVo/Ke5NKsyYeHjx4MH7WrFmvyI/nkDUXjoTT5OMiIiJi09LSlp8/fz6lTp06faW3zHmiUi7cvn1bbVJ8on79/H2dfVYfSnUT9QFSpDekD50/efJkz8DAwIItwKVxHtzc3OpLP/iv5OTkAqUEWCOA6SV4VHwvudu8IE3GsCc50ytXrmRIYa4ZMGBAM/OjaDR54+Xl1Sk4ODiU0SIgLZSX+Eh7SU+pplvn1pliWBeBMnLG6+7Zsyf87bff7mu+tUZTYMpNnTp1pPSLp5izxTx7aROUh3wQ1sjUg4TKwhL4UPypjMCJH3/8sTfv8/vbaTRFYNy4cVVkx+YvUlhpiJTRrQd1mh4kVCbkkWpiot65c+durlq1aqGrq6t9v/dGUzbx8PBobJYTZkpPqSIsPwEBMtpFc46I8Z1ANgBhU34nozLDnt8MHTrU9utCajR8Lfvu3bv34TXJdzI7ltpQvOm6deuUOK3Iy+xZ9nX5ncZelJszZ86rUVFR8fhNkvRSvCqiIk6iK8/L6HqJ1e8CAgJ0+Z3GfgwcOLD60qVL5509e/YGzf/atWtVqiopKSl9zZo1PrKZ16vfaRyH4cOHtw4MDPQPCQnJDJKMGjWqo/krjcbxePrpp1uauxqNRqPRaDQajUaj0TgqQvwfnuPhRzREvOQAAAAASUVORK5CYII=;" vertex="1" parent="1">
          <mxGeometry x="89.30000000000001" y="519" width="170" height="93" as="geometry" />
        </mxCell>
        <mxCell id="VJpR1qYwohyVPgYZPXll-27" value="" style="shape=image;verticalLabelPosition=bottom;labelBackgroundColor=default;verticalAlign=top;aspect=fixed;imageAspect=0;image=data:image/png,iVBORw0KGgoAAAANSUhEUgAAAKoAAABdCAYAAAA14f0jAAAAAXNSR0IArs4c6QAAAARnQU1BAACxjwv8YQUAAAAJcEhZcwAADsMAAA7DAcdvqGQAABKpSURBVHhe7Z0JWFZVt8cPjqilgqKBiDiXlqWkopJc0uiloKspj9pj8Zler5rDl4/6SaZevalkDuVniTg0CIEIYYT6SZoMosagIODAJDMxKIokpsC567/dp4+4IIO8h5eX/Xue8wDv2ZxxnbX/a+119isJBAKBQCAQCASC1oGtrW07jUYzQpZlA/6RQKBbLF68eEJoaGjU3bt3KwMDA3+aNGnSEL5KIGh+HB0dLQICAr4vKiqqjI2Nlc+dOycnJyfLmZmZD7799tvPxowZ05U3FQjUZ8SIEV3279+//saNG/dokSMiIuTff/+den1Zzs/Pl8PDw+WCggI5ISGhwM3Nba6zs3Nb/q8CgfZZv359G1pmxsTEZBYXFzMDzc7OZgZaHXhWeFiSA/LPP/8cu3DhQlu+GYFAe8ybN8/q1KlT4ffu3WMGGB8fz02ydioqKuTo6GgZsoAMu4L06+GxY8da8k0KBE2Hk5NTbx8fnwPUpVdeuXKFGSkMsCGUlpYy75ueng79Wrpv377/GTZs2FN8FwJB49FoNB2//PLLFUlJSaVkXMzQ7ty5w02vcWRlZbHt3Lp1C142a/PmzbNoV20e7VEgaCArV658KzIyMrmkpIR5UHjCpgSe+fz58zK2HxwcfI7062i+a4GgbubMmTPsxIkTwQiAoqKimLbUFpAPv/76qxwXF4dMQYWfn9/BN998sw8/FIHg/zNp0qQe3t7eu3JyciquXbvGuucHDx5wk9IueCiQzsrNzUWmoGTXrl2rp0+f3okfmkAgSb6+vm3d3NwWU1d8Ky8vTw4LC5OLioq4CakL8rEXLlxgOjgmJiblo48+msoPU9CaWbVq1Wtnz55NQESOLjgtLY2bTPNRWVkpX758WabjYtr45MmTP8+cOXMEP+RWRasvmJgxY8YQ0qJbu3bt+p9kGFKnTp2kUaNG8bW6B0mCytDQ0L0hISHrPDw8ivjHAn1Fo9F0PXjw4KdZWVn3uQNrUZA8Kd66desSZ2fnDvyUBPoExtlJh86Jj4/P5fe8xYJMAcmCxCVLlmj46Qn0gUWLFtkcOHAgury8nN9q/QC6Oigo6Ke5c+cO4qcqaIm8/fbb/Y4ePepTWFhY+eOPP7JKJn2E9OsDLy+vz2xtbbvzU9cb9DqYcnR07EzLSgcHh5UGBgZdMjMzpZdeeknq0qULb6GfxMXFFQYGBn5M0mD/hg0bKvnHAl0DOnTjxo2s/A7j6EigY1y9NYEBipCQkNhly5ZN5JdFoEvMnz//5VOnTp0tKytjCfP6lN/pKxgsOH36dCXJnsN2dnb9+CUSNCcov/Pz80P5XUVCQgJL2utb0NRQ8JYBBgsweJGenl7m7u6+0dTUtDO/ZC2KFq9RKXAwnDZt2tI33njjY0NDw6fppkgvvvii1LWreD1JIScnR4I+f/bZZ6UbN27kkH5dRR/7CP2qDgYov6PuPQXlcSiTa+ryO30DBTaQQ/x1mPOLFy8ew6+lQBu89957w4MJdG248CiNE9QPyKHIyEg5MTFRLiwsLCe59A31QKKcsCmxtrY29vT0/GdeXt7Dq1evskINtcrv9I3bt2+zXohkATTs7d27d682NzfX2XLCFqFRKZJvT/pq/uuvv77JyMioG+ksaejQoVKPHj14C0FjIbkkZWdns/zy9evX044dO7Zi3bp1Rw0MDGTeRFAfli5d+lpEREQCdBUKmFGnKWh6Ll26xDIl0PvHjx//5YMPPniB3wLB45g1a9bgoKCgQFy4ixcvsteMUZ8p0B4PHz5kxor0Xm5ubvnhw4e/tLGxMeG3pFnRua5/8uTJ3VxcXFwnTpy4nC5c+/z8fFYfamhoyFsItM2dO3ek2NhYJq9IyxYfPXp0AzmLPUeOHHnAm6iOzhgqZh3p0KHDnKlTp24yMTHpTXpJGjRokNS7d2/eQlAX5BSlP/74Q8rKypIoupf69evHCsFJb/IW9QfbSk5OZkb7/PPPSyQNrvr7+3+4Y8eOk7yJqujEHEikQ20cHBz8yUgXkLBnEzGMHDlSeuopMSdDQ0hNTZXI60kpKSlI7EsU1UtPP/10ox52GDeCVfwvtkn3x4QC2tkkvwwjIyNP82aq0ayTHaD8LjAw0Ju8aZixsbHV1atXpTFjxkhDhohZGhtDYmKiVFRUJLVt25Z5VApA2Wfwjo0B94NiA9wniYxTIimGV3eapea1Wbp+W1vbp955550V9vb2KL/rjCE+pEc6d26Rw9A6A4wzNDSU9UQwqtLSUmn06NENTuP99ttvzDujy0fqCnICPRy8bEREhB8FWM68qWqoaqjQoXSyzubm5lunTZtmgafd0tJS6tNHDIw0FdW9Z0P0KQybIn7W3bdr147VB1Sv320uQ1W16y8sLFys0Wh8nJ2dLc6cOSORwQojbWJgmFWX+oC3bymql1DQ89xzzzGPCiZMmKAzReaqGqqdnV0ndCF4alHh1LFjR+nChQtIgfAWArVBFx8VFcUM9P79+6zSaty4cVLfvn15C91A9WCqQ4cO0vjx45mOwkVCCio3N5ddrIqKCt5KoG0QdJ07d07q1q0buxeXL1+WXn75ZWnYsGG8hW7RbFF/r169WNdSXFzMotPhw4ezCBORpkB7wGuiF8N1R3yAVBYk2NixY6U2bZo1CfRYVD0yJPHhPasyePBglpK6du0aG3165plnINhZFyRoOhBkxcXFSVeuXGHRfEFBAevBrK2tmVfVdVQ1VAzJQajXFJlimBTrYbCmpqYs1YKEdUlJCW8laCyokEI3D6eAwAkjTujNdE2HPg7VfX3Pnj1rTUDDo0LI42deXh578jEcGBMTI/RrI0D3jocdcQGue3x8PAtiEdC2NFQ1VOTlkIiuCzMzM9YloX1ZWRmLSBFswRMI6gYP9dmzZyUU9AwYMEDKyMiQTExMmA5t3749b9WyUNVQIdphfPXN7yHAsrKyYhEpiiswwoIbUFhYyFsIagJBEaQT8qJI4qOXMjY25mtbJqoaKi6gnZ1dvQ0VoC28KzwD9CsiVeRdMfaMCFbwV5SgCQHSwIED2aIPqGqoEPKNBVVAyL/C2G/evMnkAFJZ0F2CR8CDQpMiaIJH1aepi1TXqOHh4bUGU/VB0a+IZH/55RdmsK0RPPTIOyPYVJL3SNxDi+LhRRYFUktfUNVQ0W2jmPdJDFUB+hXBAYKs1jZIgPOF9MEoEs4fI3yQRkjeQ8fjQUapnz6hqqE2JZAA6NogCZRBguqDCfoGzg+eE+eLkkhodicnJ5abvnfvHpNG2gya4MWzs7ObJbGt6mM3cuRIm4qKislI7DckoKoNDAzAWNHVwVNDl2H0CzerpaZhagJGiFwyMh8IkuA54U1xzvCcmKrHyMiIt9YOycnJdw4dOrTW09Pz44yMDP2eCsjb2/sfmDCCnkzq/ZsWTCuJCSnwLc/4JhG8uaqN/agJjh/nwb/kl70uXtu3V2uLgoKC8iNHjuwbN25cL34bmwVVPaqVlZWNoaHhZIyUNHVEiknRMCSIyBceCEEWgg16MFpkDhGDG1jgOTFKhyp7BEhqTf6G1F9YWFjotm3b3l6zZs0+ekB+56uaBVUN1dHR0YSE/rTS0tK2CAigtZpa9CPqhSRQcolYMGCA2teWkK7BYMalS5dYxI4RJrwKgtdJUG2mBuREsf/0AwcO/Nf777//D7qOj6qoWxuzZ88edPz48Z8w8wkmO0A3ra0uGhPZYhI1dJfkndhcS5jgF2BiC10Cx4Xjw3FiPih082ofY3p6eslXX321FlN58tslWL58+et0YxIwIx9ml8MN0haYjhIT2mJf0HxeXl5sNhBo2uaeMh0PKTQoBUtsOkgck9rTFhUVFZUHBAR42tvb62w51ZOH3k8AJj+zsLD4wNnZ+WPSkT2QbkHFVPfu2vlSD0TOitSAjlXK3NC9Yr9IdakJ3r2H/sQLdKgThTx54QX1pnyCfqcHI8rX1/fve/bsOcc/1kma1VAVqKvpuWjRog02Njb/Td11W6SukHLRBqjeQq0AtCyMBCNc2BdylKjUQhFMU6TOHgfK76DRkaTHTCS3bt1ixeNqJumpR8khCeZKD6yXmHm6gSxcuHBEcHDwaWg1NYEMwD7pprGfSUlJfE3TQpE708zkPWV6SNi+8O3VaqbREL0fPHhwy/jx49XtPvQRV1fXKdHR0ckU9fLLq32wLwR3MCKKvFkwk5+fz9c+OZgVOyoqij0M2HZqair7HEaqhqFSL1IZFBT0g0aj0Y9yKl2BLmjHL774wpV03G1+rVUBARc8HQKalJQU9js+ayzIOMAwsQ3MQYpgTgEGigdEMVRtGCy2Hx4efnnZsmX/wS+tQBtgfnl/f/9vEJnya68KmZmZ7IvUFANDVN4QQ1JSYxkZGczgEc0jBYVtKNuBESlL1c+rg9E80tb8r/qTmJhYuGXLloWYoYZfToG2If06+syZMxH376v7reVIHcELKvpV6bJrA0an5IehP2GgynevwhCrGqbyu7LUBPa9Y8cOtu/6QoHhH15eXjsx1yy/fAKVMVi3bt0s8nBZuLHe3t4sOa5t4M1gcAi6YHTIyd68eZOv/TcUyTMvCqPGz+vXr/M1j6jJOKsvCgi2PvzwQ3nChAnyrl27mHevC+yXIvl/vfvuu3o3HaKqQ6hNQWhoaAIFWnvppksWFhaju3fv3h75VwyVIg+pDVBSiJwrto+0Uv/+/VmxMvKgmFAMZXYYpkW6iYyFpb0w6wje/FQgO+K/PQLHT7KCzV+AYwdIi2FMf8+ePdKnn37KKsAw7Is6Xgw30/mydtXBtiIjI6+Tpv/bkiVL1tOx3OSr9AadyKM2FisrK4uNGzd+9sorr0wnLdgGCWwkz2FY2gRV9TBGFIxgHi0YLQYM8BkS9qi0rw6MCcBgcZwnT54kY3STysiwo6JjmJHiuFevXs3yqijpQ2EI2uIhcXBwYO/iVycpKelOcHDwxvj4+H96eHjU/YpvC6VFG6rCvHnzXnFxcfli1KhRI1GMgmQ+5rTSJjA4zHOPAQR4URjZxIk1f5Ez2mKhrp1NrPvJJ//L3qbFuMJA8sJnQsL+NFR4UnhoDArAQHEuWKZMmfKXoprCwsKKkJCQgyQL1tC29P61XL0wVIDIlrrKeU5OTp+YmZmZQA5gxKlq96sNKMhhryOj4qmmiR1goPCm8Lo7tm+XvLw8pfKKcmaUuPg9e5pI0TEXWVuMTJEGZ7PD4O1RTMQB48cM3MqoFaQBGWaoj4/P3/fv3x/LPhS0PDQaTddDhw5to8j3PoIZROBKxZQ2QJAFquZHq4IA6Ycf/OWhQwbLps/0ko2Muss9jI3o996yeR8zecSI5/9MP5WXl8vu7u7y9u3bZdLibCRLgYwd+0hbs2aNM/2pNw6m1TNjxoyBSjkhcqANzYPWl7oMFUY4c+YM2dS0t2zUvZts0ddcHjx4gGxp2ZcZ7HPPDv3TSLEgo1BaWvqXY01LS7u7e/duUX6nz1AUbB8REZGI/CtSPE1ZQoccq6+vr0yBTI3lgvCm8IqzZs0iA+0j9+hhLPfuZSIPHGApDx7UnxntW285MQNF2+oPEsmFyoCAgEOvvvqqmJa7NeDs7NzBzc1tKenWmyQJmqz2FdLi2LFjzAPWxL8NdSYzVBjpoIH95b7mZrK9/WvswanJSPE/5FnPL1iwwJqfgqA1MX36dGMvL6891F03yXAsDFXp+muiukeFPh0+fJj8/fffM0mA9coCYKxxcXE5FPm/S38KHdraIYN9AeWEGMl5EvBmAoIeVFlhuLQ6MEAYJAy1f/9+8ubNm1gNgOJFqxopSYcyDw+PLfhqI36YAsEj1q5dOxXlhI0NsmBkX3/9NZMS1YMpbBPrYZRYjxrXqsapLLdv365A+d2UKVNE+Z2gdlBO+Pnnn69OTU1tVDlhbVG/Yqi1LZAEFOTFUrBnxw9FIKibyZMnm/n5+X1TUFDwZ2UIDOpxQDrAUNEO6a+qPM5QUX5HOnQBBXktrtZCoCOgnPD06dNnUeXv7+/PKqJqAxVSe/fuZSV41etFazJUDEJ4enruJB2qnbcXBa2PVatWvRMSEpKBcj5U6KNSvzqPi/qrGmpJSUnliRMnjpMObZ1zZAq0i7W1dSd3d/cNFJHfRaU+jLJqzrSu9BQCKVqftGLFCg3fpECgPairtgwMDDxcXFxcgcp9ZTg2LS1N3rdvHxv2xMt7VUlJSSneuXPn8vXr17fjmxEI1GH+/PkTw8LCLipBFNJO+IlcqRL15+fnl1NQ5oG5Cvi/CQTqg3LCTZs2zaXIPR+vpaDaCUEVKrSCg4NDZ8+e/SJvKhA0PxhB+u6777Z5e3s/JClww9XVdTpfJRDoHkOHDrV0cXER5XcCgUAgEAgEAoFAINA1JOn/AGkVeDvVHipOAAAAAElFTkSuQmCC;" vertex="1" parent="1">
          <mxGeometry x="20" y="477" width="170" height="93" as="geometry" />
        </mxCell>
        <mxCell id="VJpR1qYwohyVPgYZPXll-28" value="" style="shape=image;verticalLabelPosition=bottom;labelBackgroundColor=default;verticalAlign=top;aspect=fixed;imageAspect=0;image=data:image/png,iVBORw0KGgoAAAANSUhEUgAAAKoAAABdCAYAAAA14f0jAAAAAXNSR0IArs4c6QAAAARnQU1BAACxjwv8YQUAAAAJcEhZcwAADsMAAA7DAcdvqGQAABODSURBVHhe7Z0JXFXVvseXQ87zPKdG5pSzZmZRoWmaqS99QBpybXjdyqHndCuH6zW16/U+IeNq2sfs83EIHFIcHhKkpFlKAomKEygoqKSI5IQK+63vam8vj5D5cA6c9f189od9DptzDnv/9n/91n/91zpCo9FoNBqNRqNxMCqYPzU2ZODAgdWHDh06+OGHH449duyYYT6t0TgM5WbPnu0ZGRl57s6dO4aPj0/klClTnjF/p9HYnzfeeKNnSEjIPgR6+vRpY/369UZ8fLyRkpKS+c033wS4u7u3Ng/VaEqeIUOGNNmwYcOqS5cuZSYnJxs//PCDceHCBSMzM1MJlsfXr1834uLibi5btuxv/fr1q2n+qUZjewYPHlzZz89vuhTjb7dv3zb2799vnDhxwsiJAwcOGOHh4UZGRoYRFRWVsGDBAk/5EuV/fyWNxkbMmDFj+E8//XQa4R0+fPi+CHPj1q1bhvwbFWXT09ON0NDQfW+99VYv8yU1muLD29v78V27doXcvHnTOHPmjLF3717VrBeEK1euGPv27TOkVWDL3Lx586oxY8Y0Nd9Coyk8splvuG7dOj/pPe9evXpV+c6EhARTeoUjJiZGRVg6X9IyXPf19Z0xatSoquZbajT5RzbNDy1evHjCyZMnL9+9e9f48ccfDfKixQV24eeff8a3qs6XfP24qVOnjjTfXqPJm48++uiFsLCwo/fu3TOOHDmiRJqXDy0s2AdsRGxsrIGtwF6MHz++s/lRNJo/4u7u3m7Hjh2BaWlpxrlz51Rvnv2SgLQW74ePTU5Ovufv7/8vNze3+uZH02iEGDBgQO3Vq1cvkt4z/bffflMRjoS9PbD8K9E8Ojo69ZVXXpk4evRopxr+Lmf+1JgggD59+ng3b958nhRrUylOUbFiRdGtWzfzCPsgbYY4dOiQkGIVPXv2FNLLHt+4ceMkHx+fYPMQjbMwefLkp3fv3h1B5LIiGZ0mRwUvu00yYsSIdua/oCnLvPTSS622bNnif/Xq1UxTA6WKpKSk9K+++uofLi4utcx/SVOWkAKt9sUXX8yNi4u7ZV7zUo30r5cWLlz4hrP51zILF3L+/Pke0vOdM69xmQGrsmfPnshp06a5mv+upjTi7e3dW/pQVX5XVsG7BgUFZW6Q9O/fv635r2tKAx4eHo39/f2/DA4OzijqcKejc/bsWZV/RbDx8fHXly9f/reOHTvWME9FqaTMp6dcXV2rSJFOdHNzm9WyZcsav/zyi6hbt65o165sd5SlXkVUVJTIzMxUqbVjx44lbNu27QPZknw9d+7cTPMwjQNQbubMmSMYLyfdxPg54+i2GvZ0VLA4FM1QG0udrLQEP02ZMqW3eY409sTLy6uTvCCh1HwymvT9998XuPyurEEZIeWEKSkp7GcEBASsHjRokC4ntAeU361fv94vMTExgwtC4cj58+fNS6UBIuvBgwdVscvJkyfT/Pz8dDlhSWGV38XExKTQ1DEuToWT5sFwjiwrFB4eHvvhhx9STqinw9gKyu9kD/co+cOjR4+q+UjWEKgmd6xywri4ODU1RtqlEGYtmKdWUxy89tpr7bZv376Vyiaad/xXamqqeQmcBwqsERzNOaKTzXmB6xPwr6SzsEtJSUkZ2Cd5fh2qnLDUpaeGDh1a193d/YNnn312Uq1atSrJKCqaNm0q2rRpYx7hXEhhiU2bNomqVauqyiopUtG4cWMhfacoX75gLbm0TkKKXnTv3l1IL5u2a9euWd9+++3nMtKmm4fYjVIzJsyw55gxY8ZPmDBh0/PPPz9InsgKN27cUCVv5EWdldOnTwvZaRSyZRGy+Ra//vqrSE9PF/369SuwUBs2bCiaNGmiygkrVapU+ZlnnnlRin8USxFJH3vaPMwulAqhsgzO2LFjN3l6ev6XbN5rnDp1SvTu3VtF0nLlnLuklnNQrVo1FUXbtm0rpKjECy+8IGrXrm0eUTAQN2I9fPiwis6yBWtQo0aNsTLSRsuIG2MepsnK8OHDWwcGBvrjnRITE1XimmkZmj+CV6UHz8+iQIeUjACvQz0u3pXXlcHidfOyaCxY/Y7xacrvGE2ho0TPVGM7CAR0xuicss85Zyq4hRbq/6f87Nmzx7DMDSkm6ZWMiIgI81RpbAHCJGpSyEL2gEGSnOaGaaGavPvuu72Cg4P3k1qRHlTd0URTjW2gOSelFR0drfYJCtRDPAinFyqr323evPlL2Vu9v/odPzW2g2FUzjOtFnlX9ln/KicYaiXivvrqq84pVBcXl8o+Pj5/iY2NTeMkYeA5gRrbkZSUdD+xT5IfgcoAYf42Z4i0YO+Iapex3SeffLLzZ599FjNhwoSFMnrWlM286NOnT5mvEbUX5FfJtUorpWpTjx8/rvKu5FobNGhgHpUzBc3F2gq7fAovL68eLVu2bPP555+Lzp07q7xdeHi4KvLVFB8yEKriaYT5xBNPqFGnY8eOib59+4pHHnnEPCpveB1pAcxH9sFut0vHjh2JrOLIkSPioYceEj169BCy+VfDeJqiY41YtW/fXo3cyY4TdkuN5BVkkITgwXWxdxCxa1xHoNzdnEgiKnc5Iy2c4MTERPMoTUG4fPmykN5T1KxZU3To0EFERkaKypUrq/NMPUBBIYAQUGrUsO+UK4cwIPgkTgZNExG1a9eu9+9kxvM1+Sc1NVX9PHPmjJAdJnVeuflLO3YR6tmzZ4XsRJmP/g0RlRPLWD7FFfiquLg4ERERYR6hyQs6TtzwXbp0Uc1+cZCSkiIuXLhgPrIPdhFq69atVaSkmCIniKidOnVSEZUmjH3sAL5LkzPnz59X54hyR7YKFYqn3sgKGvaOynZr+q0T+iDwVURXxIzPevTRR0WtWrXE/v37xcWLF82jNGlpaeqGpmf++OOPi+joaHXu2IoDAspjjz1mPrIfDuFRc6NRo0aqI0DzY5X3kSqx8oLOCh6enjzLYmKR8KNYKm5uSv3KGnbzqNQ7EgXyC4MBJKjJCyJUxHvixIkCv05phd68BbMayJLQI69UqZI4cOCAskvkpG0B59hpPSpGn2aqIJD/I6KSD+RC4V8R8N69e0VCQoJ5VNmCqSY07Qh1586dKvXUokULFTWJqFTlc9OS6rMFvD4F2U7rUYkEhTX8VapUUUOu1atXFwy/0tMtCymYrNBzR5RU2dODJ+3EytdETkaXaFVoYerVq2f+hW1o3ry5iI2NVdbLnji8R80Npl+0atVKnUzWlMrIyDB/U3rBe9JaIA6ESCTFm+NDESyZD3woUc7W4H/pvNKRtfUNkRd2mTPVoUOHrnXq1BmJtyxqJCSaIlBSWFxgIg8dsNIInpu8Md6T3jaPGfJs1qyZsj2MDlEXYWs4h2RaEKe0GZlhYWFbN27cuFQKN808xDlYtmyZlxSpKtgtDpgyQaE1ZWxUrDOlojQtLXnx4kX1maVA1H5+yu9sAUXrFFPzJW/sy89xeOLEiW7mZXM+LKEWN3wfKfWW1rwf2Qkpse+EKgwUJfMZ+eJe2TKoz86XoNkDlkBilRkEKvcvL1q06M9Ov8T6zJkzvTghtoJveKbglwp2ax/xIgrWW+J5eyJ9qPocsnlV+9Jfq7lhtDA8traSwJrde+3aNWZW3F67du2n/fv3d96FErKyZMkSL+kn1UmyFdwIRCimWrBw2ooVK4zjx4+r5xGsvRZRI3piU/hM1jdSSz+qRJp9Kwmx8ll4/127dgWNGDGig3mJHA679PqvXLmi0izSW5rPFD+kcugd0yGgk0WPmZwgyXEyBeQhSf+UVDkh4+WMpjEMTA6Zz8QwJz170m05IXVk08EMXlv60dPz5s0bNmjQoMFbtmzRxcBZ8fPz88K0h4aGclOXCHhACyKZFI21xv39fVvATFpeH+9JFMUHEtmJljlF0Zy2nGD2KJ2vwiIj+1XZsk2Tl8O5fWhuTJ8+feClS5du4RtpevgyXHuAf7W8IVOFrf3iACHy+tyQvCbCsvazb3hmLAkb4kPYiJrn+X1WyAb8fdE/jAULFhRqMqQ87/c2bty4kkWPzcuhyY1hw4a57NixYzuRjFQSfrIoEaKwEPGs3jazYelY4GuLAos58Dp4P/439q2InT2SWiIl4ksBGT17dDcaN2qoIj3PW0Lls/n5fWa079zZGDxspOHj46Mic35B+MHBwXs9PDy6m5dAUxDee++9F+WFPMYFZN0jog4XqKThK8eJ7pcvX1ZRC/GS0ywITEPm7+gk0otmP3trkVWoiJQbhQzAiBHDjaZNGhstWjQz2rRuJT9PkjoPHBMU9L9Gz57d5O+aGkOGDjHGeY8zPv300wcKlfewYF+2FGdmzpz5n+YpL5U4xFJ4o0ePrtSrV68/v/zyy3PatWtXV164+52OkoYZm9R40tmjIITyOfZzm28kBaWquhg5okjm0KFDqg6B0bLsSO2oTQpIVSQtWfI/IiDAXz2WohR37twV1atVFYciIkWDBg3F3L/OEStWLBM9ez0hP0c3VQPAqBXvM3LkyD/UijL0ynQeNzc36nZvyCj6dxkAFi1dutTua5wWBYdas/H111+vN2DAgPmurq5vyQtdHqHYQ6wIiekvDFuyqC11BDzHfnYoEEE4DHsy5InIKZjJaT68JVLqaFev/lL4+vio+fVwR4q9WtUqSuCp166JyMio34U6d66oUKG8fL0KKkPB8DDVZxSPv/POO/fXhiWTIi2Lms4jbUSGbKXWr1ix4oOwsLDz6oBSjkMuLjp+/PjOnp6ePk2aNHGzVY1lfqCOAMGSzmICIvtWiR1TP2SzrqZ9U8lEAQezPnNbl5SoiVBlR0j4+vqIKlUqS/UKKcJyKmLzOxbhRbQItWHDRmL58uUqypPK4qbl95Q5Pvfcc6oCjWhOC8TnQ8CyIxa+bdu2SYsXL/7RfNsygUNWT61aterIwIEDB6xZs+Y/ZDN6mgtoDxDPU089paIj6w9w08hOifD391eiwhJQxIxYqAnNS6TWz9TUq6JixQriTvodVVBDzrdu3doqglNXSvkjFoDHRFyEyc1C/e3YsWPVQr0cR0EzxSO8t/xciZ988smfvvvuu75lTaTg0Dk02Xwdl5FkhWzSbsqI0adevXrFMxGogOCXKSXE++3Zs0eJhenINLc08/lZ3dm62RBqSMi3Ijr6iHpMU49dIOmP4BGut/efxIsvDlE3CO9JNEWc3DTcPERvnscDS5Hf3rBhwz99fX09Vq5ceUA29WV/uoMjw7fMbdq06UvZuSmeRGchoEqLIdCtW7eqdE9BsHr69PLff3+y0bhxI6NRowZG2zatjSZyv/1jjxpeXq+p3Kh1LBvZCOu9SHFlySpkbt++fbO7u3v+1+bRlByTJ0/uFRoaup8LDgwakGMsCRAqo1qFSbQjOisdZQm1QYP6RquWLYy+ffsw1n4/b2pt2SEdxd/v27fvlylTpjxvnhKNA1Nu3rx5ntKjxXPxKHBhZEk2q+YltQ2FFSqfK6tQ//v991UU7d6tq0riM9iQl0hh7969yQsXLtTld6WNLl26VJcRdl5CQsJ1ajsZAaJpthWFFWpWAdKMBwUFGTNmTFdrlCLQ7CJly8rFixfTv/76a1/pU+07H0RTNGSHpk1gYGCAFFIGo0mMlTPCVNwgMtmZUjcEpYL5qVGwoqm1EVUtcbLxOOvv2ayW4caNG5k7d+4Mkj7UYcvvNIVg0qRJz8jmMQIBEFkRU0E7PfkhJCREiYkpG3mRXahsWcWa/Xccz/Pys5+cNm3aS+a/5vSUKa9z4MCB+FatWq2UnvVc27Zt+3bt2rU6eUYmqxXnhD8pNJVgZ4YoNa65IbVq7v0b8qPWBkzoY4SJx6dOnUqTzfxHsnM1bunSpcfVAZqyi4uLS63Vq1f/Mykp6TYFItZa9EWFqIdHzW9EzR4xs25MRqQQhk361bv+/v66/M5ZcXV1dZE+b5uMrEVOCdCZCggIUBs+1fKSuZGTQMmH8vcyeqpSwPXr14fp8juN4s033+R7/WPwh4XF6vXHxMSYz+RNVo/Ke5NKsyYeHjx4MH7WrFmvyI/nkDUXjoTT5OMiIiJi09LSlp8/fz6lTp06faW3zHmiUi7cvn1bbVJ8on79/H2dfVYfSnUT9QFSpDekD50/efJkz8DAwIItwKVxHtzc3OpLP/iv5OTkAqUEWCOA6SV4VHwvudu8IE3GsCc50ytXrmRIYa4ZMGBAM/OjaDR54+Xl1Sk4ODiU0SIgLZSX+Eh7SU+pplvn1pliWBeBMnLG6+7Zsyf87bff7mu+tUZTYMpNnTp1pPSLp5izxTx7aROUh3wQ1sjUg4TKwhL4UPypjMCJH3/8sTfv8/vbaTRFYNy4cVVkx+YvUlhpiJTRrQd1mh4kVCbkkWpiot65c+durlq1aqGrq6t9v/dGUzbx8PBobJYTZkpPqSIsPwEBMtpFc46I8Z1ANgBhU34nozLDnt8MHTrU9utCajR8Lfvu3bv34TXJdzI7ltpQvOm6deuUOK3Iy+xZ9nX5ncZelJszZ86rUVFR8fhNkvRSvCqiIk6iK8/L6HqJ1e8CAgJ0+Z3GfgwcOLD60qVL5509e/YGzf/atWtVqiopKSl9zZo1PrKZ16vfaRyH4cOHtw4MDPQPCQnJDJKMGjWqo/krjcbxePrpp1uauxqNRqPRaDQajUaj0TgqQvwfnuPhRzREvOQAAAAASUVORK5CYII=;" vertex="1" parent="1">
          <mxGeometry x="234.29999999999995" y="172" width="170" height="93" as="geometry" />
        </mxCell>
        <mxCell id="VJpR1qYwohyVPgYZPXll-29" value="" style="shape=image;verticalLabelPosition=bottom;labelBackgroundColor=default;verticalAlign=top;aspect=fixed;imageAspect=0;image=data:image/png,iVBORw0KGgoAAAANSUhEUgAAAKoAAABdCAYAAAA14f0jAAAAAXNSR0IArs4c6QAAAARnQU1BAACxjwv8YQUAAAAJcEhZcwAADsMAAA7DAcdvqGQAABKpSURBVHhe7Z0JWFZVt8cPjqilgqKBiDiXlqWkopJc0uiloKspj9pj8Zler5rDl4/6SaZevalkDuVniTg0CIEIYYT6SZoMosagIODAJDMxKIokpsC567/dp4+4IIO8h5eX/Xue8wDv2ZxxnbX/a+119isJBAKBQCAQCASC1oGtrW07jUYzQpZlA/6RQKBbLF68eEJoaGjU3bt3KwMDA3+aNGnSEL5KIGh+HB0dLQICAr4vKiqqjI2Nlc+dOycnJyfLmZmZD7799tvPxowZ05U3FQjUZ8SIEV3279+//saNG/dokSMiIuTff/+den1Zzs/Pl8PDw+WCggI5ISGhwM3Nba6zs3Nb/q8CgfZZv359G1pmxsTEZBYXFzMDzc7OZgZaHXhWeFiSA/LPP/8cu3DhQlu+GYFAe8ybN8/q1KlT4ffu3WMGGB8fz02ydioqKuTo6GgZsoAMu4L06+GxY8da8k0KBE2Hk5NTbx8fnwPUpVdeuXKFGSkMsCGUlpYy75ueng79Wrpv377/GTZs2FN8FwJB49FoNB2//PLLFUlJSaVkXMzQ7ty5w02vcWRlZbHt3Lp1C142a/PmzbNoV20e7VEgaCArV658KzIyMrmkpIR5UHjCpgSe+fz58zK2HxwcfI7062i+a4GgbubMmTPsxIkTwQiAoqKimLbUFpAPv/76qxwXF4dMQYWfn9/BN998sw8/FIHg/zNp0qQe3t7eu3JyciquXbvGuucHDx5wk9IueCiQzsrNzUWmoGTXrl2rp0+f3okfmkAgSb6+vm3d3NwWU1d8Ky8vTw4LC5OLioq4CakL8rEXLlxgOjgmJiblo48+msoPU9CaWbVq1Wtnz55NQESOLjgtLY2bTPNRWVkpX758WabjYtr45MmTP8+cOXMEP+RWRasvmJgxY8YQ0qJbu3bt+p9kGFKnTp2kUaNG8bW6B0mCytDQ0L0hISHrPDw8ivjHAn1Fo9F0PXjw4KdZWVn3uQNrUZA8Kd66desSZ2fnDvyUBPoExtlJh86Jj4/P5fe8xYJMAcmCxCVLlmj46Qn0gUWLFtkcOHAgury8nN9q/QC6Oigo6Ke5c+cO4qcqaIm8/fbb/Y4ePepTWFhY+eOPP7JKJn2E9OsDLy+vz2xtbbvzU9cb9DqYcnR07EzLSgcHh5UGBgZdMjMzpZdeeknq0qULb6GfxMXFFQYGBn5M0mD/hg0bKvnHAl0DOnTjxo2s/A7j6EigY1y9NYEBipCQkNhly5ZN5JdFoEvMnz//5VOnTp0tKytjCfP6lN/pKxgsOH36dCXJnsN2dnb9+CUSNCcov/Pz80P5XUVCQgJL2utb0NRQ8JYBBgsweJGenl7m7u6+0dTUtDO/ZC2KFq9RKXAwnDZt2tI33njjY0NDw6fppkgvvvii1LWreD1JIScnR4I+f/bZZ6UbN27kkH5dRR/7CP2qDgYov6PuPQXlcSiTa+ryO30DBTaQQ/x1mPOLFy8ew6+lQBu89957w4MJdG248CiNE9QPyKHIyEg5MTFRLiwsLCe59A31QKKcsCmxtrY29vT0/GdeXt7Dq1evskINtcrv9I3bt2+zXohkATTs7d27d682NzfX2XLCFqFRKZJvT/pq/uuvv77JyMioG+ksaejQoVKPHj14C0FjIbkkZWdns/zy9evX044dO7Zi3bp1Rw0MDGTeRFAfli5d+lpEREQCdBUKmFGnKWh6Ll26xDIl0PvHjx//5YMPPniB3wLB45g1a9bgoKCgQFy4ixcvsteMUZ8p0B4PHz5kxor0Xm5ubvnhw4e/tLGxMeG3pFnRua5/8uTJ3VxcXFwnTpy4nC5c+/z8fFYfamhoyFsItM2dO3ek2NhYJq9IyxYfPXp0AzmLPUeOHHnAm6iOzhgqZh3p0KHDnKlTp24yMTHpTXpJGjRokNS7d2/eQlAX5BSlP/74Q8rKypIoupf69evHCsFJb/IW9QfbSk5OZkb7/PPPSyQNrvr7+3+4Y8eOk7yJqujEHEikQ20cHBz8yUgXkLBnEzGMHDlSeuopMSdDQ0hNTZXI60kpKSlI7EsU1UtPP/10ox52GDeCVfwvtkn3x4QC2tkkvwwjIyNP82aq0ayTHaD8LjAw0Ju8aZixsbHV1atXpTFjxkhDhohZGhtDYmKiVFRUJLVt25Z5VApA2Wfwjo0B94NiA9wniYxTIimGV3eapea1Wbp+W1vbp955550V9vb2KL/rjCE+pEc6d26Rw9A6A4wzNDSU9UQwqtLSUmn06NENTuP99ttvzDujy0fqCnICPRy8bEREhB8FWM68qWqoaqjQoXSyzubm5lunTZtmgafd0tJS6tNHDIw0FdW9Z0P0KQybIn7W3bdr147VB1Sv320uQ1W16y8sLFys0Wh8nJ2dLc6cOSORwQojbWJgmFWX+oC3bymql1DQ89xzzzGPCiZMmKAzReaqGqqdnV0ndCF4alHh1LFjR+nChQtIgfAWArVBFx8VFcUM9P79+6zSaty4cVLfvn15C91A9WCqQ4cO0vjx45mOwkVCCio3N5ddrIqKCt5KoG0QdJ07d07q1q0buxeXL1+WXn75ZWnYsGG8hW7RbFF/r169WNdSXFzMotPhw4ezCBORpkB7wGuiF8N1R3yAVBYk2NixY6U2bZo1CfRYVD0yJPHhPasyePBglpK6du0aG3165plnINhZFyRoOhBkxcXFSVeuXGHRfEFBAevBrK2tmVfVdVQ1VAzJQajXFJlimBTrYbCmpqYs1YKEdUlJCW8laCyokEI3D6eAwAkjTujNdE2HPg7VfX3Pnj1rTUDDo0LI42deXh578jEcGBMTI/RrI0D3jocdcQGue3x8PAtiEdC2NFQ1VOTlkIiuCzMzM9YloX1ZWRmLSBFswRMI6gYP9dmzZyUU9AwYMEDKyMiQTExMmA5t3749b9WyUNVQIdphfPXN7yHAsrKyYhEpiiswwoIbUFhYyFsIagJBEaQT8qJI4qOXMjY25mtbJqoaKi6gnZ1dvQ0VoC28KzwD9CsiVeRdMfaMCFbwV5SgCQHSwIED2aIPqGqoEPKNBVVAyL/C2G/evMnkAFJZ0F2CR8CDQpMiaIJH1aepi1TXqOHh4bUGU/VB0a+IZH/55RdmsK0RPPTIOyPYVJL3SNxDi+LhRRYFUktfUNVQ0W2jmPdJDFUB+hXBAYKs1jZIgPOF9MEoEs4fI3yQRkjeQ8fjQUapnz6hqqE2JZAA6NogCZRBguqDCfoGzg+eE+eLkkhodicnJ5abvnfvHpNG2gya4MWzs7ObJbGt6mM3cuRIm4qKislI7DckoKoNDAzAWNHVwVNDl2H0CzerpaZhagJGiFwyMh8IkuA54U1xzvCcmKrHyMiIt9YOycnJdw4dOrTW09Pz44yMDP2eCsjb2/sfmDCCnkzq/ZsWTCuJCSnwLc/4JhG8uaqN/agJjh/nwb/kl70uXtu3V2uLgoKC8iNHjuwbN25cL34bmwVVPaqVlZWNoaHhZIyUNHVEiknRMCSIyBceCEEWgg16MFpkDhGDG1jgOTFKhyp7BEhqTf6G1F9YWFjotm3b3l6zZs0+ekB+56uaBVUN1dHR0YSE/rTS0tK2CAigtZpa9CPqhSRQcolYMGCA2teWkK7BYMalS5dYxI4RJrwKgtdJUG2mBuREsf/0AwcO/Nf777//D7qOj6qoWxuzZ88edPz48Z8w8wkmO0A3ra0uGhPZYhI1dJfkndhcS5jgF2BiC10Cx4Xjw3FiPih082ofY3p6eslXX321FlN58tslWL58+et0YxIwIx9ml8MN0haYjhIT2mJf0HxeXl5sNhBo2uaeMh0PKTQoBUtsOkgck9rTFhUVFZUHBAR42tvb62w51ZOH3k8AJj+zsLD4wNnZ+WPSkT2QbkHFVPfu2vlSD0TOitSAjlXK3NC9Yr9IdakJ3r2H/sQLdKgThTx54QX1pnyCfqcHI8rX1/fve/bsOcc/1kma1VAVqKvpuWjRog02Njb/Td11W6SukHLRBqjeQq0AtCyMBCNc2BdylKjUQhFMU6TOHgfK76DRkaTHTCS3bt1ixeNqJumpR8khCeZKD6yXmHm6gSxcuHBEcHDwaWg1NYEMwD7pprGfSUlJfE3TQpE708zkPWV6SNi+8O3VaqbREL0fPHhwy/jx49XtPvQRV1fXKdHR0ckU9fLLq32wLwR3MCKKvFkwk5+fz9c+OZgVOyoqij0M2HZqair7HEaqhqFSL1IZFBT0g0aj0Y9yKl2BLmjHL774wpV03G1+rVUBARc8HQKalJQU9js+ayzIOMAwsQ3MQYpgTgEGigdEMVRtGCy2Hx4efnnZsmX/wS+tQBtgfnl/f/9vEJnya68KmZmZ7IvUFANDVN4QQ1JSYxkZGczgEc0jBYVtKNuBESlL1c+rg9E80tb8r/qTmJhYuGXLloWYoYZfToG2If06+syZMxH376v7reVIHcELKvpV6bJrA0an5IehP2GgynevwhCrGqbyu7LUBPa9Y8cOtu/6QoHhH15eXjsx1yy/fAKVMVi3bt0s8nBZuLHe3t4sOa5t4M1gcAi6YHTIyd68eZOv/TcUyTMvCqPGz+vXr/M1j6jJOKsvCgi2PvzwQ3nChAnyrl27mHevC+yXIvl/vfvuu3o3HaKqQ6hNQWhoaAIFWnvppksWFhaju3fv3h75VwyVIg+pDVBSiJwrto+0Uv/+/VmxMvKgmFAMZXYYpkW6iYyFpb0w6wje/FQgO+K/PQLHT7KCzV+AYwdIi2FMf8+ePdKnn37KKsAw7Is6Xgw30/mydtXBtiIjI6+Tpv/bkiVL1tOx3OSr9AadyKM2FisrK4uNGzd+9sorr0wnLdgGCWwkz2FY2gRV9TBGFIxgHi0YLQYM8BkS9qi0rw6MCcBgcZwnT54kY3STysiwo6JjmJHiuFevXs3yqijpQ2EI2uIhcXBwYO/iVycpKelOcHDwxvj4+H96eHjU/YpvC6VFG6rCvHnzXnFxcfli1KhRI1GMgmQ+5rTSJjA4zHOPAQR4URjZxIk1f5Ez2mKhrp1NrPvJJ//L3qbFuMJA8sJnQsL+NFR4UnhoDArAQHEuWKZMmfKXoprCwsKKkJCQgyQL1tC29P61XL0wVIDIlrrKeU5OTp+YmZmZQA5gxKlq96sNKMhhryOj4qmmiR1goPCm8Lo7tm+XvLw8pfKKcmaUuPg9e5pI0TEXWVuMTJEGZ7PD4O1RTMQB48cM3MqoFaQBGWaoj4/P3/fv3x/LPhS0PDQaTddDhw5to8j3PoIZROBKxZQ2QJAFquZHq4IA6Ycf/OWhQwbLps/0ko2Muss9jI3o996yeR8zecSI5/9MP5WXl8vu7u7y9u3bZdLibCRLgYwd+0hbs2aNM/2pNw6m1TNjxoyBSjkhcqANzYPWl7oMFUY4c+YM2dS0t2zUvZts0ddcHjx4gGxp2ZcZ7HPPDv3TSLEgo1BaWvqXY01LS7u7e/duUX6nz1AUbB8REZGI/CtSPE1ZQoccq6+vr0yBTI3lgvCm8IqzZs0iA+0j9+hhLPfuZSIPHGApDx7UnxntW285MQNF2+oPEsmFyoCAgEOvvvqqmJa7NeDs7NzBzc1tKenWmyQJmqz2FdLi2LFjzAPWxL8NdSYzVBjpoIH95b7mZrK9/WvswanJSPE/5FnPL1iwwJqfgqA1MX36dGMvL6891F03yXAsDFXp+muiukeFPh0+fJj8/fffM0mA9coCYKxxcXE5FPm/S38KHdraIYN9AeWEGMl5EvBmAoIeVFlhuLQ6MEAYJAy1f/9+8ubNm1gNgOJFqxopSYcyDw+PLfhqI36YAsEj1q5dOxXlhI0NsmBkX3/9NZMS1YMpbBPrYZRYjxrXqsapLLdv365A+d2UKVNE+Z2gdlBO+Pnnn69OTU1tVDlhbVG/Yqi1LZAEFOTFUrBnxw9FIKibyZMnm/n5+X1TUFDwZ2UIDOpxQDrAUNEO6a+qPM5QUX5HOnQBBXktrtZCoCOgnPD06dNnUeXv7+/PKqJqAxVSe/fuZSV41etFazJUDEJ4enruJB2qnbcXBa2PVatWvRMSEpKBcj5U6KNSvzqPi/qrGmpJSUnliRMnjpMObZ1zZAq0i7W1dSd3d/cNFJHfRaU+jLJqzrSu9BQCKVqftGLFCg3fpECgPairtgwMDDxcXFxcgcp9ZTg2LS1N3rdvHxv2xMt7VUlJSSneuXPn8vXr17fjmxEI1GH+/PkTw8LCLipBFNJO+IlcqRL15+fnl1NQ5oG5Cvi/CQTqg3LCTZs2zaXIPR+vpaDaCUEVKrSCg4NDZ8+e/SJvKhA0PxhB+u6777Z5e3s/JClww9XVdTpfJRDoHkOHDrV0cXER5XcCgUAgEAgEAoFAINA1JOn/AGkVeDvVHipOAAAAAElFTkSuQmCC;" vertex="1" parent="1">
          <mxGeometry x="165" y="130" width="170" height="93" as="geometry" />
        </mxCell>
        <mxCell id="VJpR1qYwohyVPgYZPXll-42" style="edgeStyle=orthogonalEdgeStyle;rounded=0;orthogonalLoop=1;jettySize=auto;html=1;entryX=1;entryY=0.5;entryDx=0;entryDy=0;" edge="1" parent="1" source="VJpR1qYwohyVPgYZPXll-30" target="VJpR1qYwohyVPgYZPXll-1">
          <mxGeometry relative="1" as="geometry">
            <Array as="points">
              <mxPoint x="490" y="561" />
              <mxPoint x="490" y="491" />
            </Array>
          </mxGeometry>
        </mxCell>
        <mxCell id="VJpR1qYwohyVPgYZPXll-30" value="" style="shape=image;verticalLabelPosition=bottom;labelBackgroundColor=default;verticalAlign=top;aspect=fixed;imageAspect=0;image=data:image/png,iVBORw0KGgoAAAANSUhEUgAAAKoAAABcCAYAAAD+vS6GAAAAAXNSR0IArs4c6QAAAARnQU1BAACxjwv8YQUAAAAJcEhZcwAADsMAAA7DAcdvqGQAABFvSURBVHhe7Z0LVFTVGsc3Jqb5AvMtkqHYQ8K3gllmRYRy1SwU7tW813cuCSWVMpVMV3pZady78oomaiKimSiIZBKWSogv3gjK+yWKiIIgwgDnfv/tmSRCBWTwzMz+rTULmBlmzpz5n+/7f3t/Zx8mEAgEAoFAIBAI9IuZM2daBAQE7Pr0008nSJJkIN8tECiDSZMmPbtr167/Zmdnq+Li4qSbN29KP//8c8j8+fMt5KcIBE+OMWPGtNywYcOCpKSkgvT0dCk8PFwqKSmRzp07J124cEHKycmp3LNnzyYIWf4XgaBZMVi2bJnNqVOn4m7cuCH9/vvvECVl+/vcuXOH35+RkSHFx8ff9PT0XOju7t5S/n+BQLM4OTmZBwUFBagFmpiYKEuzbq5duyadPn2a/yRhJ7q4uNjS3cK/CjTD22+/3XHnzp0e5EMrYmNjufiqqqruqbEeUFSVwsLCYA2qqeAKsrOz6y+/tEDw+MCHrlu3bjaJ81pmZiYXaHFxsSy/hqFSqaQzZ85IEDq9lsrHx+frd999t4P8VgJB41i8ePEYSteRqOLp5198aGNR+9e0tDQpISHhuoeHxxwcEPLbCgT1w9bWts+WLVv2FxYWVqOCj4mJkSXWtOTm5vKRgoKCAun48eNxM2bMeEveBIHgwVBUa7d9+/Yv09PTy5OSkriIKisrZVlpDvhXvBcdFNWBgYH+Y8eO7StvkkBwH3d39xZr1qyZHhkZmStr54lCFqNs69at60aMGCH8q+Ae8+fPtwoNDT3bHJGzIVRXV6Poytu4ceMM2swW97ZWoHdQtW3i7++/m/xhtawNRVJRUQH/es7Z2XmUvOkCfcDe3v4ZSqsrMjIybsta0AquX79efejQId/Jkyc/J38UgS4CH/rFF19MpYIlE2lVW0lLSyv18vJyR+EnfzSBrjB79uyhv/zyy6ny8nL569ZucKBFR0dn0oHnRB9PTMdqO7a2tj0OHDiwLSgoqBJjlbrG3bt3pWPHjv1ubW09XP7IAm2C0mLrb7/9dimlyVvJycl8jh1FiS6yfft2KSsrq5oKwx0zZ87sKe8CreYp+afOQt+bAaXFiQsWLAigKDM1Ozu7dffu3dlLL73EnnpKNz++hYUFS0pKMnjuuecGjR49ej591qpr165F5eXlqeSnaB06LdRp06ZZtG/f3veDDz5YfvXq1U4tW7ZkgwYNYu3a6XbNgQOwd+/e/HeKrK0om7xtZWX1d2Nj45zw8PBE/oDgyUNRpIufn9+m3NzcSszJR0ZG8mJDX7l06RLv0EIjTUhISOisWbMs5V0leBK8/PLLrTw9PV0o7d1MSUnh3U0oLgT3wAELwZINqNy3b5+XjY1NV3nXKR6dGcb45JNP7CjFbzQ3N3+RhMr69u3L4EX1hcrKSpafn89IhIy8KTMyMmItWvx1lrW8vJyRWFmvXr3w++3g4ODVJSUl/1m9enWl/BRFovUe1cnJ6cUNGzbsnDp16urCwsLOlOLZ4MGDdd6HqsHnJR/K9u/fz6KiolhFRQU7d+4cikhmYmIiP+s+8OkQMoRNon6a/Os7Xbp0cercuXNqWFhYivw0xaG1EZV2sNHs2bNX0c+PSaBPUYpnI0aMYAYG+jHWDSEWFRWx48ePsytXrrDr169z0eJ+RM0JEyaw1157TX72gyH/ym7dugXbxE6fPn3Uy8tr6cGDB+PlhxWD1n2rJMyW48ePn2VnZ7eOoqYxvqSBAweytm3bys/QfRA1yX+z+Ph7eiorK2MDBgzg1X5GRgYbNWoUH92oL1VVVczX15dNnz6dXbx4UbV8+fIPAwMD98oPKwKtEuqiRYvefP/997+ho9+Sdij3oT169JAf1Q+QstevX886derEbty4wYYOHcr69OnDLl++zO+DSJHe60taWhr3tYio8PZkA1hcXNzKSZMmrZWfogi0oqeR/Gffw4cPH1y5cmWooaGhJaLo6NGj9U6kam7fvs0Lxblz57L27dtzjzp27Fj2+uuv11ukBQUFLDw8nGei1q1bs/T0dG6dzMzM5GcoC0VHVJyN6ejo+Nlbb73lSn6sFVWnbNiwYTo7o1Rf4EEjIyN5VY/CqCGjG/hfFF1UPPH/x0E/fPhw9vTTT8vPYCwgIEBxEVWRQkX7He24GePGjVtH6awbIgZ8qL5U8poiJiaGWwdTU1OWnJzMzM3NeaqvjRKFqrjU7+rqOprS2Nl58+ZtLy0t7YZK9tVXXxUifQxQYFFFz6dVIVRU+fCydYlUqShGqFQUdNy9e7efm5vbSRLn0Ly8PL4zkdr0BRyUEBKq8KagsLCQC7RVq1bci0Kw8KGIpNqGYoRKFXx/qjwd/fz8DNDZhDFCGH59ITs7m/n7+7Nt27YxOmDZ+fPnuXAbg0qlYhEREXxUoGfPnlygEOeQIUO0dpxZUakfM0qo5vGldejQgVe3Z8+eZXfu3JGfoZtAkMHBwRjDZFExkSwuLpaFhIQwFI+NIS4ujg/8YxLA0NCQZ6Y2bdrIj2onivOoqOhRhcJPoSJF6sf4HiIMdr4ugihnatqb7T2ynf1y/iA79Ksvq5JUjfLliKawDzdv3uQCRUTVBRQjVOxgRFA1HTt25EUUFVT8MaQujPulpCh2OrrRQKh2duNYTFgyO/7jeRZ9IoV9/tnKOptKHgQOYkTk2NhY1q9fPz74r0soRqhIUZmZmbzrpyYYgEYBgBmUZ555hj377LO8QECnkK6BfYAMgkjaEC8Jq4SDGB1ROKgx02RlZSU/qhsoKvXjFApMB9YGXxr8K4os2AAMViP6ol0NA9j6SnFxMT9oEU2RgdBgMnLkSL6fdA3FCBUFE5orHgam+qytrZmxsTGPqBB1QkICT3e66l/rAh4Unj0nJ4e38uXm5v6RebS1qn8UihEq0jqiJXb6o0BEhWDhX9FJhHSJKhkpT9fBgQmRwrNj4B4+FvsC+0+XUVTqR3rHkEp9QRRBqouOjuYjBN26dZMf0Q0wbAVRwt7gAMbYKBpxEDXhS1HVw5fqA4oRKooA3BoKvjQIFt1DYWFhvCDTBRITE/kYMir4zZs3c2uDQhM+FMN38POaAAcFHQT3h18UgmLakCwtLXuR55yDqh4etCGgkIBA0QGEtjekRwxwa2M6hH1Bhnj++ed5sYQbmkgwy4T+WwhXEz4UB0JkZGSmt7f3HDc3t53y3YpBMc57ypQpw/ft23dW/rNRoBjDl4z0CO+KQW/YCcx1Kx0Uk5hR6tq1K992+E80RTekCbqxZGRklB45cuTfQUFBHkePHtXfYZT68N577w1vyKVvHoZ6HXxc94k8Hr/iiFIhH8q3Eacy5+Xl8aWGcP59c0D7pyogIGD3m2++qR9Gtymwt7cfLp9zLu/Gx4csgEQ+j3/xuOIIeS/5EWWANbCwXUVFRfwSQKmpqfIjmoUitvTrr7+emTNnzkh59wvqC1I/dmJUVBTfmU0FIhauQYrXxaV2IAxKq/KjT4arV6/y7cjPz+fbRnal2VZyiYmJyVm1atV0+lU3B1w1DVJ/ZWUllvzGSsr39moTgus4YeWUrKwsHmkRwRBZIJLmirTYBlgSRE5EU2xDc63kQj70zrZt29aOGjWqvbzLtQrFHFW4eC1V+y7jxo1bSfu1I5p+cfpJU7enYTYHTdn9+/dnVLzxggUTCBin1NRp1/R5eKGEcVF0M5FQefXeHB32lD2q6QA9sHPnzqX+/v66MXanBEg4nXft2vVdQUGBCgUGCg1NpEVcWPfQoUPS7du3eWSjiMOjK1KxSqWSn/X44Ep86gIJ74M1sQA+kybTPT7DyZMnLyxcuPDRq1AIGs/EiRMHkeEPxTVGkbI1DUYK8D54PxRgjztSAPsCH3rlyhVe0eNWU5gY4WiqUY7aUPTOW79+/SwHBwf9Pl23GTEgSzB5z5496ZqMPjVB0YWoighIEYkXPg2hvLxcioiIkC5fvsyjNMRaVlbGH1N/BvxUCxW3uj4bWZ8GX2eVDrYy2lceWO5I3n86g1ZUfiTWVkZGRssmTJjgZmZmpvHTUdGdhIXGMOOF2S30H2DJnIfNdJFO+BI7mILErBJOR0Z3V+1z7vE83GqjbpIm0bI9e3xZRkYm72OwsbHh9z8M2JcTJ04EeXt7LyY7kyrfLXhSUKToTl/EDk2MCtQFxjfhLxHZsCAwLtZbF4icqOYx7AUfmpSUJD9yH0RNdSTF6AbEhehbM6riNd61tZGsrUZKX3/9tfTTTz/J/103eB3avnhXV9dHq1nL0SoPk5mZWbJ3794AEtCRdu3aWZiYmPTW5Kop6B3APDumMzEKgUodq4xgqhY9Cbgff+O0D0RhRF40jGAUoTakK37D9GhQ0GE2a9Ys1sm4E29yLiy8wRa5uDBf393MrK85a0ORG5EYN7xnXVAxWODr67vMwMBgNglV987PqYVWmm3ykFe+//77HSSOyySY4RSNOqLTCM0smjjbEhYADcpYiAxz7xhWwqnNOFMWIkXLHawB+mJrN4yoBUpRk4v6Y2dn5uXlxcrulDILi1fYSCsr3soXSY/17m3KzzzFEBYOBpzeXHuNU/LMFYGBgf8jO/T+d999d3L//v160TGu9bMT5OHaDh48eNn06dOXkojaoNsIY6OairSIiDt27ODd9GgkgR990JmeECg8J4mLeXh4sP0/7ON/t2hhQBG4ii1Zugwrw/A+061bt/IxXDREwwu/8cYb/Hf158B7UZo/unnzZleyP3p3wQitjKg1SUtLU1Fl/RtFIh+Krj0tLS0HUFo0QFpGJ1JTA+EgkqJ3FmJFW+GDgFAReadN+weLirzAyu7eZQYkUkRlw5aGbPDgIXwdA0xCYCFiWAZYByzCiyZwFFh4DRLy5S1btsz46KOP3Mn/6s+qHDXQeqGqiY2NLfrhhx9+JAEde+GFFyzNzMx6IdXii0bqbkrQGwpP+rBV9NTpfs2aL1lKcjKrIGEbGXVkbSlaVpRXcNFaW4/iq0JjVRj4YQcHB+5J1VGUrMYtsjifk534cNGiRZf4nQKdosVXX331r4SEBApWOX9U5E0FLoeD8daHgUoeVf0UBwepe7eu/Na1axfJvJ+ZZGbWR3rFYoBEXvNPVb+a/Px8FXlPr3feeUe3Ts4X1A2l5g7e3t7rs7Kyyi5evMiHlzCk87jEx8dLPj4+fAq2rulWiK62UE1MekqmpiZSf/N+0jfffMMnAWoLFA0qxwlHR0dxHSh9BCtWBwUF+RcUFFSj5xWifVwQUdEBhQ6suvhDqFMcJJNePaVuFE0XL17EZ7pqR1H8pIModcWKFZPlTRboMy4uLm9Q4RWNCQPM62N+v7HUR6iIti4uH0sTJ07gvQOI5rjVFGlqamqxp6fncvKnyj9fRtB8oFGDUu+8xMTE/MY2u2D+3s/PT/rtt9+46OpCnf4hVvysecNj5EOrcPVnzLbJmyYQ/JWBAwcaLV++fCOl4gZ3LquvLfog1CJVi7KmSOFDSeCn5s6dO0zeFIHg0dja2r5A/jW4uLj4ry1MD+BRVX9toar/jo6OTnd3d3ektxWngQgax4IFC8ZFRERchKAeBar+AwcOSMHBwXWOItQWKvnQEi8vL3d7e3vdXndH0DxQOjbctGmTM/lXfr4yOpxwnlNdYGz2UcUURhkOHjzoRwI1ld9CIGg6xo8fb+zj47P5xIkTKpyego5/RMaaPKzqx7AU/e/ZJUuWWMsvKRBoDktLS4uQkJBjJSUlvC9Vfb4TJg4w2B8aGvqn1A8xx8XF5a5du/af9KfwoYLmA4Jzc3P7G/nXFJyHj9NMkPYpYvL0riYrK+uut7f3Vw4ODuKCWIInB06H8fT0XEYVf1FpaekfVX9RUVHV4cOHD0yePFmZFxEV6Cc2NjZdqeLfRhV/5alTp6KcnZ3Hyg8JBMpj6NChphRlFbUQskAgEAgEAoFAIBAIBAKBQCAQCAQCgUAgEAgEAoFAIBAIdAvG/g/SwOSe/jTgaAAAAABJRU5ErkJggg==;" vertex="1" parent="1">
          <mxGeometry x="546.3" y="509.18" width="190" height="102.82" as="geometry" />
        </mxCell>
        <mxCell id="VJpR1qYwohyVPgYZPXll-34" value="" style="shape=image;html=1;verticalAlign=top;verticalLabelPosition=bottom;labelBackgroundColor=#ffffff;imageAspect=0;aspect=fixed;image=https://cdn4.iconfinder.com/data/icons/internet-networking-and-communication-glyph-24/24/Computer_camera_live_camera_video_chatting_web_camera_webcam-128.png" vertex="1" parent="1">
          <mxGeometry x="110" y="330" width="70" height="70" as="geometry" />
        </mxCell>
        <mxCell id="VJpR1qYwohyVPgYZPXll-37" style="edgeStyle=orthogonalEdgeStyle;rounded=0;orthogonalLoop=1;jettySize=auto;html=1;entryX=0;entryY=0.5;entryDx=0;entryDy=0;exitX=1.058;exitY=0.51;exitDx=0;exitDy=0;exitPerimeter=0;" edge="1" parent="1" source="VJpR1qYwohyVPgYZPXll-36" target="VJpR1qYwohyVPgYZPXll-1">
          <mxGeometry relative="1" as="geometry">
            <mxPoint x="240" y="470" as="sourcePoint" />
            <Array as="points">
              <mxPoint x="280" y="421" />
              <mxPoint x="280" y="491" />
            </Array>
          </mxGeometry>
        </mxCell>
        <mxCell id="VJpR1qYwohyVPgYZPXll-36" value="Camera focused&lt;br&gt;on Over Speeding&lt;br&gt;violations" style="text;html=1;align=center;verticalAlign=middle;resizable=0;points=[];autosize=1;strokeColor=none;fillColor=none;" vertex="1" parent="1">
          <mxGeometry x="85" y="390" width="120" height="60" as="geometry" />
        </mxCell>
        <mxCell id="VJpR1qYwohyVPgYZPXll-38" value="" style="shape=image;html=1;verticalAlign=top;verticalLabelPosition=bottom;labelBackgroundColor=#ffffff;imageAspect=0;aspect=fixed;image=https://cdn4.iconfinder.com/data/icons/internet-networking-and-communication-glyph-24/24/Computer_camera_live_camera_video_chatting_web_camera_webcam-128.png" vertex="1" parent="1">
          <mxGeometry x="440" y="190" width="70" height="70" as="geometry" />
        </mxCell>
        <mxCell id="VJpR1qYwohyVPgYZPXll-41" style="edgeStyle=orthogonalEdgeStyle;rounded=0;orthogonalLoop=1;jettySize=auto;html=1;entryX=0.5;entryY=0;entryDx=0;entryDy=0;" edge="1" parent="1" source="VJpR1qYwohyVPgYZPXll-39" target="VJpR1qYwohyVPgYZPXll-1">
          <mxGeometry relative="1" as="geometry">
            <Array as="points">
              <mxPoint x="471" y="380" />
              <mxPoint x="385" y="380" />
            </Array>
          </mxGeometry>
        </mxCell>
        <mxCell id="VJpR1qYwohyVPgYZPXll-39" value="Camera focused&lt;br&gt;on Illegal Lane Change&lt;br&gt;violations" style="text;html=1;align=center;verticalAlign=middle;resizable=0;points=[];autosize=1;strokeColor=none;fillColor=none;" vertex="1" parent="1">
          <mxGeometry x="396.3" y="265" width="150" height="60" as="geometry" />
        </mxCell>
        <mxCell id="VJpR1qYwohyVPgYZPXll-43" value="" style="shape=image;html=1;verticalAlign=top;verticalLabelPosition=bottom;labelBackgroundColor=#ffffff;imageAspect=0;aspect=fixed;image=https://cdn4.iconfinder.com/data/icons/internet-networking-and-communication-glyph-24/24/Computer_camera_live_camera_video_chatting_web_camera_webcam-128.png" vertex="1" parent="1">
          <mxGeometry x="580" y="320" width="70" height="70" as="geometry" />
        </mxCell>
        <mxCell id="VJpR1qYwohyVPgYZPXll-45" style="edgeStyle=orthogonalEdgeStyle;rounded=0;orthogonalLoop=1;jettySize=auto;html=1;entryX=1;entryY=0.5;entryDx=0;entryDy=0;" edge="1" parent="1" source="VJpR1qYwohyVPgYZPXll-44" target="VJpR1qYwohyVPgYZPXll-1">
          <mxGeometry relative="1" as="geometry">
            <Array as="points">
              <mxPoint x="490" y="420" />
              <mxPoint x="490" y="491" />
            </Array>
          </mxGeometry>
        </mxCell>
        <mxCell id="VJpR1qYwohyVPgYZPXll-44" value="Camera focused&lt;br&gt;on Beating the Red Light&lt;br&gt;violations" style="text;html=1;align=center;verticalAlign=middle;resizable=0;points=[];autosize=1;strokeColor=none;fillColor=none;" vertex="1" parent="1">
          <mxGeometry x="535" y="390" width="160" height="60" as="geometry" />
        </mxCell>
      </root>
    </mxGraphModel>
  </diagram>
</mxfile>
